<svg width="548" height="330" viewBox="0 0 548 330" fill="none" xmlns="http://www.w3.org/2000/svg">
<path d="M532.986 0H15.0137C6.72186 0 0 6.71573 0 15V315C0 323.284 6.72186 330 15.0137 330H532.986C541.278 330 548 323.284 548 315V15C548 6.71573 541.278 0 532.986 0Z" fill="white"/>
<path d="M77.6833 86.1357C76.263 86.1357 75.0165 85.8099 73.9441 85.1583C72.8715 84.4921 72.0383 83.5728 71.444 82.3998C70.8498 81.2125 70.5527 79.8441 70.5527 78.2947C70.5527 76.7454 70.8498 75.3771 71.444 74.1897C72.0527 73.0023 72.9079 72.0756 74.0093 71.4096C75.1252 70.7434 76.437 70.4104 77.9442 70.4104C79.6544 70.4104 81.0747 70.8231 82.2053 71.6484C83.3502 72.4738 84.0893 73.6105 84.4226 75.0585H82.314C82.111 74.1462 81.6256 73.4223 80.8573 72.8865C80.1038 72.3507 79.1327 72.0828 77.9442 72.0828C76.8283 72.0828 75.8572 72.3363 75.0311 72.843C74.2049 73.3353 73.5601 74.0449 73.0963 74.9716C72.6469 75.8983 72.4223 77.0061 72.4223 78.2947C72.4223 79.5835 72.6469 80.6911 73.0963 81.618C73.5455 82.5447 74.1687 83.2614 74.9658 83.7682C75.763 84.2605 76.6906 84.5067 77.7486 84.5067C79.3719 84.5067 80.5965 84.0361 81.4226 83.0949C82.2486 82.1392 82.7198 80.836 82.8357 79.1853H78.4442V77.7517H84.7053V85.875H83.0313L82.8792 83.3772C82.3284 84.2605 81.6546 84.9411 80.8573 85.419C80.0603 85.8967 79.0022 86.1357 77.6833 86.1357ZM87.4844 85.875V75.102H89.1366L89.2889 77.1654C89.6222 76.4557 90.1295 75.8911 90.8107 75.4711C91.4918 75.0513 92.3324 74.8413 93.3325 74.8413V76.7526H92.8324C92.1948 76.7526 91.6077 76.8685 91.0714 77.1001C90.5353 77.3173 90.1077 77.6938 89.7888 78.2296C89.4701 78.7653 89.3106 79.5039 89.3106 80.445V85.875H87.4844ZM99.8267 86.1357C98.7976 86.1357 97.8847 85.9039 97.0876 85.4406C96.2904 84.9628 95.6599 84.3039 95.1962 83.4642C94.7468 82.6243 94.5222 81.6324 94.5222 80.4885C94.5222 79.359 94.7468 78.3744 95.1962 77.5345C95.6454 76.6803 96.2686 76.0213 97.0658 75.558C97.8775 75.0802 98.8122 74.8413 99.8702 74.8413C100.914 74.8413 101.812 75.0802 102.566 75.558C103.334 76.0213 103.921 76.6368 104.327 77.4042C104.733 78.1717 104.936 78.997 104.936 79.8804C104.936 80.0395 104.928 80.1988 104.914 80.3581C104.914 80.5174 104.914 80.6985 104.914 80.9011H96.3267C96.3701 81.7266 96.5585 82.4143 96.8918 82.9645C97.2397 83.5003 97.6673 83.9058 98.1744 84.1809C98.6963 84.456 99.247 84.5935 99.8267 84.5935C100.58 84.5935 101.211 84.4198 101.718 84.0723C102.225 83.7247 102.595 83.2542 102.827 82.6605H104.631C104.341 83.6596 103.783 84.4921 102.957 85.1583C102.146 85.8099 101.102 86.1357 99.8267 86.1357ZM99.8267 76.3834C98.9571 76.3834 98.1818 76.6513 97.5006 77.187C96.8339 77.7084 96.4498 78.4758 96.3483 79.4893H103.131C103.088 78.5191 102.754 77.7589 102.131 77.2087C101.508 76.6585 100.74 76.3834 99.8267 76.3834ZM110.943 86.1357C110.045 86.1357 109.298 85.9836 108.704 85.6795C108.11 85.3755 107.668 84.97 107.378 84.4632C107.088 83.9565 106.943 83.4061 106.943 82.8126C106.943 81.712 107.363 80.865 108.204 80.2713C109.044 79.6776 110.189 79.3807 111.639 79.3807H114.552V79.2504C114.552 78.3093 114.305 77.5998 113.813 77.1219C113.32 76.6296 112.661 76.3834 111.834 76.3834C111.124 76.3834 110.508 76.5643 109.987 76.9264C109.479 77.274 109.16 77.7879 109.03 78.4686H107.16C107.233 77.6866 107.494 77.0277 107.943 76.492C108.407 75.9562 108.979 75.5508 109.661 75.2757C110.342 74.986 111.066 74.8413 111.834 74.8413C113.342 74.8413 114.472 75.2467 115.226 76.0576C115.994 76.854 116.378 77.9182 116.378 79.2504V85.875H114.748L114.639 83.9419C114.335 84.5502 113.885 85.0714 113.291 85.5058C112.711 85.9257 111.929 86.1357 110.943 86.1357ZM111.226 84.5935C111.921 84.5935 112.516 84.4125 113.008 84.0505C113.516 83.6886 113.9 83.2179 114.161 82.6387C114.421 82.0596 114.552 81.4513 114.552 80.8143V80.7925H111.791C110.718 80.7925 109.957 80.9808 109.508 81.3573C109.073 81.7192 108.856 82.1754 108.856 82.7256C108.856 83.2903 109.059 83.7465 109.465 84.094C109.885 84.427 110.472 84.5935 111.226 84.5935ZM123.081 85.875C122.096 85.875 121.32 85.6362 120.755 85.1583C120.19 84.6804 119.907 83.8189 119.907 82.5736V76.644H118.038V75.102H119.907L120.147 72.5172H121.733V75.102H124.908V76.644H121.733V82.5736C121.733 83.2542 121.871 83.7175 122.147 83.9637C122.422 84.1953 122.908 84.3112 123.603 84.3112H124.734V85.875H123.081ZM135.155 85.875L132.003 75.102H133.829L136.111 83.551L138.633 75.102H140.699L143.242 83.551L145.503 75.102H147.351L144.199 85.875H142.329L139.677 76.9915L137.025 85.875H135.155ZM152.575 86.1357C151.677 86.1357 150.931 85.9836 150.337 85.6795C149.742 85.3755 149.3 84.97 149.01 84.4632C148.721 83.9565 148.576 83.4061 148.576 82.8126C148.576 81.712 148.996 80.865 149.837 80.2713C150.677 79.6776 151.822 79.3807 153.272 79.3807H156.185V79.2504C156.185 78.3093 155.938 77.5998 155.446 77.1219C154.952 76.6296 154.293 76.3834 153.467 76.3834C152.757 76.3834 152.141 76.5643 151.619 76.9264C151.111 77.274 150.793 77.7879 150.662 78.4686H148.793C148.865 77.6866 149.126 77.0277 149.576 76.492C150.039 75.9562 150.611 75.5508 151.293 75.2757C151.975 74.986 152.698 74.8413 153.467 74.8413C154.974 74.8413 156.105 75.2467 156.859 76.0576C157.627 76.854 158.01 77.9182 158.01 79.2504V85.875H156.38L156.272 83.9419C155.967 84.5502 155.518 85.0714 154.923 85.5058C154.344 85.9257 153.562 86.1357 152.575 86.1357ZM152.859 84.5935C153.554 84.5935 154.149 84.4125 154.641 84.0505C155.149 83.6886 155.533 83.2179 155.793 82.6387C156.054 82.0596 156.185 81.4513 156.185 80.8143V80.7925H153.423C152.352 80.7925 151.59 80.9808 151.141 81.3573C150.706 81.7192 150.488 82.1754 150.488 82.7256C150.488 83.2903 150.691 83.7465 151.098 84.094C151.518 84.427 152.105 84.5935 152.859 84.5935ZM161.606 90.6534L164.28 84.8325H163.649L159.366 75.102H161.345L164.91 83.4858L168.692 75.102H170.584L163.519 90.6534H161.606ZM182.526 85.875C181.541 85.875 180.765 85.6362 180.2 85.1583C179.634 84.6804 179.352 83.8189 179.352 82.5736V76.644H177.483V75.102H179.352L179.591 72.5172H181.178V75.102H184.352V76.644H181.178V82.5736C181.178 83.2542 181.316 83.7175 181.591 83.9637C181.867 84.1953 182.352 84.3112 183.049 84.3112H184.179V85.875H182.526ZM191.288 86.1357C190.275 86.1357 189.36 85.9039 188.55 85.4406C187.737 84.9772 187.093 84.3256 186.614 83.4858C186.15 82.6315 185.919 81.6324 185.919 80.4885C185.919 79.3446 186.158 78.3526 186.637 77.5128C187.114 76.6585 187.76 75.9997 188.571 75.5364C189.396 75.0729 190.317 74.8413 191.332 74.8413C192.346 74.8413 193.259 75.0729 194.072 75.5364C194.882 75.9997 195.52 76.6585 195.984 77.5128C196.462 78.3526 196.702 79.3446 196.702 80.4885C196.702 81.6324 196.462 82.6315 195.984 83.4858C195.505 84.3256 194.854 84.9772 194.028 85.4406C193.216 85.9039 192.303 86.1357 191.288 86.1357ZM191.288 84.5718C191.911 84.5718 192.491 84.4198 193.028 84.1158C193.564 83.8116 193.998 83.3556 194.331 82.7473C194.665 82.1392 194.831 81.3862 194.831 80.4885C194.831 79.5907 194.665 78.8377 194.331 78.2296C194.013 77.6214 193.585 77.1654 193.049 76.8612C192.513 76.5571 191.941 76.4052 191.332 76.4052C190.709 76.4052 190.129 76.5571 189.593 76.8612C189.057 77.1654 188.622 77.6214 188.288 78.2296C187.955 78.8377 187.788 79.5907 187.788 80.4885C187.788 81.3862 187.955 82.1392 188.288 82.7473C188.622 83.3556 189.049 83.8116 189.57 84.1158C190.108 84.4198 190.68 84.5718 191.288 84.5718ZM209.124 86.1357C207.835 86.1357 206.763 85.8099 205.907 85.1583C205.053 84.5067 204.553 83.6233 204.407 82.5084H206.276C206.393 83.0731 206.691 83.5654 207.168 83.9854C207.66 84.3909 208.321 84.5935 209.147 84.5935C209.914 84.5935 210.48 84.4342 210.842 84.1158C211.205 83.7826 211.385 83.3917 211.385 82.9428C211.385 82.2912 211.147 81.8568 210.668 81.6396C210.204 81.4224 209.545 81.2269 208.69 81.0532C208.111 80.9373 207.53 80.7708 206.95 80.5536C206.371 80.3364 205.886 80.0323 205.494 79.6414C205.104 79.236 204.907 78.7074 204.907 78.0558C204.907 77.1147 205.255 76.3471 205.95 75.7536C206.661 75.1453 207.617 74.8413 208.821 74.8413C209.965 74.8413 210.9 75.1309 211.626 75.7101C212.364 76.2748 212.792 77.0857 212.908 78.1428H211.103C211.031 77.5924 210.791 77.1654 210.385 76.8612C209.995 76.5427 209.465 76.3834 208.799 76.3834C208.147 76.3834 207.639 76.521 207.278 76.7961C206.929 77.0712 206.755 77.4331 206.755 77.8821C206.755 78.3165 206.98 78.6567 207.429 78.903C207.893 79.1491 208.516 79.359 209.298 79.5328C209.965 79.6776 210.596 79.8586 211.19 80.0758C211.798 80.2785 212.292 80.5899 212.669 81.0097C213.059 81.4152 213.256 82.0089 213.256 82.7908C213.27 83.7609 212.9 84.5646 212.147 85.2018C211.408 85.8243 210.4 86.1357 209.124 86.1357ZM219.637 85.875C218.652 85.875 217.876 85.6362 217.311 85.1583C216.745 84.6804 216.463 83.8189 216.463 82.5736V76.644H214.594V75.102H216.463L216.702 72.5172H218.289V75.102H221.463V76.644H218.289V82.5736C218.289 83.2542 218.427 83.7175 218.702 83.9637C218.978 84.1953 219.463 84.3112 220.158 84.3112H221.288V85.875H219.637ZM227.37 86.1357C226.471 86.1357 225.725 85.9836 225.13 85.6795C224.537 85.3755 224.094 84.97 223.805 84.4632C223.515 83.9565 223.369 83.4061 223.369 82.8126C223.369 81.712 223.79 80.865 224.63 80.2713C225.471 79.6776 226.617 79.3807 228.066 79.3807H230.978V79.2504C230.978 78.3093 230.732 77.5998 230.24 77.1219C229.747 76.6296 229.088 76.3834 228.261 76.3834C227.551 76.3834 226.935 76.5643 226.414 76.9264C225.907 77.274 225.587 77.7879 225.458 78.4686H223.587C223.661 77.6866 223.92 77.0277 224.371 76.492C224.833 75.9562 225.407 75.5508 226.087 75.2757C226.768 74.986 227.494 74.8413 228.261 74.8413C229.768 74.8413 230.899 75.2467 231.652 76.0576C232.421 76.854 232.805 77.9182 232.805 79.2504V85.875H231.175L231.065 83.9419C230.762 84.5502 230.312 85.0714 229.719 85.5058C229.138 85.9257 228.355 86.1357 227.37 86.1357ZM227.653 84.5935C228.348 84.5935 228.942 84.4125 229.435 84.0505C229.942 83.6886 230.327 83.2179 230.588 82.6387C230.849 82.0596 230.978 81.4513 230.978 80.8143V80.7925H228.217C227.145 80.7925 226.384 80.9808 225.935 81.3573C225.5 81.7192 225.284 82.1754 225.284 82.7256C225.284 83.2903 225.486 83.7465 225.892 84.094C226.312 84.427 226.899 84.5935 227.653 84.5935ZM235.544 85.875V75.102H237.197L237.349 77.1654C237.682 76.4557 238.189 75.8911 238.871 75.4711C239.553 75.0513 240.393 74.8413 241.393 74.8413V76.7526H240.893C240.255 76.7526 239.668 76.8685 239.132 77.1001C238.595 77.3173 238.168 77.6938 237.849 78.2296C237.53 78.7653 237.371 79.5039 237.371 80.445V85.875H235.544ZM247.704 85.875C246.717 85.875 245.942 85.6362 245.376 85.1583C244.812 84.6804 244.53 83.8189 244.53 82.5736V76.644H242.659V75.102H244.53L244.768 72.5172H246.355V75.102H249.529V76.644H246.355V82.5736C246.355 83.2542 246.493 83.7175 246.768 83.9637C247.044 84.1953 247.529 84.3112 248.224 84.3112H249.355V85.875H247.704ZM262.516 86.1357C261.501 86.1357 260.588 85.9039 259.778 85.4406C258.965 84.9772 258.32 84.3256 257.842 83.4858C257.378 82.6315 257.146 81.6324 257.146 80.4885C257.146 79.3446 257.386 78.3526 257.863 77.5128C258.342 76.6585 258.986 75.9997 259.799 75.5364C260.624 75.0729 261.545 74.8413 262.56 74.8413C263.574 74.8413 264.487 75.0729 265.298 75.5364C266.11 75.9997 266.748 76.6585 267.212 77.5128C267.69 78.3526 267.93 79.3446 267.93 80.4885C267.93 81.6324 267.69 82.6315 267.212 83.4858C266.733 84.3256 266.082 84.9772 265.256 85.4406C264.444 85.9039 263.531 86.1357 262.516 86.1357ZM262.516 84.5718C263.139 84.5718 263.719 84.4198 264.255 84.1158C264.792 83.8116 265.226 83.3556 265.559 82.7473C265.893 82.1392 266.059 81.3862 266.059 80.4885C266.059 79.5907 265.893 78.8377 265.559 78.2296C265.241 77.6214 264.813 77.1654 264.277 76.8612C263.741 76.5571 263.168 76.4052 262.56 76.4052C261.936 76.4052 261.357 76.5571 260.821 76.8612C260.283 77.1654 259.85 77.6214 259.516 78.2296C259.183 78.8377 259.016 79.5907 259.016 80.4885C259.016 81.3862 259.183 82.1392 259.516 82.7473C259.85 83.3556 260.277 83.8116 260.798 84.1158C261.334 84.4198 261.908 84.5718 262.516 84.5718ZM271.056 85.875V76.644H269.425V75.102H271.056V73.234C271.056 72.1914 271.317 71.4312 271.838 70.9534C272.36 70.4755 273.12 70.2366 274.12 70.2366H275.207V71.8005H274.404C273.853 71.8005 273.461 71.9163 273.23 72.148C272.997 72.3652 272.881 72.7417 272.881 73.2774V75.102H275.534V76.644H272.881V85.875H271.056ZM278.295 85.875V76.644H276.665V75.102H278.295V73.234C278.295 72.1914 278.555 71.4312 279.078 70.9534C279.6 70.4755 280.36 70.2366 281.36 70.2366H282.447V71.8005H281.643C281.092 71.8005 280.701 71.9163 280.469 72.148C280.237 72.3652 280.121 72.7417 280.121 73.2774V75.102H282.774V76.644H280.121V85.875H278.295ZM290.701 85.875V75.102H292.353L292.483 76.6657C292.832 76.0866 293.296 75.6376 293.875 75.3192C294.455 75.0006 295.106 74.8413 295.831 74.8413C296.687 74.8413 297.418 75.015 298.028 75.3625C298.651 75.7101 299.128 76.2385 299.462 76.9482C299.839 76.2966 300.354 75.7825 301.005 75.406C301.672 75.0295 302.389 74.8413 303.158 74.8413C304.448 74.8413 305.476 75.2322 306.245 76.0141C307.014 76.7815 307.396 77.9689 307.396 79.5762V85.875H305.593V79.7718C305.593 78.6567 305.368 77.817 304.919 77.2522C304.469 76.6875 303.825 76.4052 302.984 76.4052C302.115 76.4052 301.389 76.7454 300.81 77.4259C300.245 78.0921 299.962 79.0477 299.962 80.293V85.875H298.136V79.7718C298.136 78.6567 297.911 77.817 297.462 77.2522C297.013 76.6875 296.367 76.4052 295.527 76.4052C294.672 76.4052 293.955 76.7454 293.375 77.4259C292.809 78.0921 292.527 79.0477 292.527 80.293V85.875H290.701ZM311.003 90.6534L313.677 84.8325H313.048L308.764 75.102H310.743L314.307 83.4858L318.091 75.102H319.982L312.917 90.6534H311.003ZM327.663 85.875V75.102H329.315L329.446 76.6657C329.794 76.0866 330.258 75.6376 330.837 75.3192C331.417 75.0006 332.068 74.8413 332.794 74.8413C333.648 74.8413 334.381 75.015 334.989 75.3625C335.612 75.7101 336.091 76.2385 336.424 76.9482C336.801 76.2966 337.316 75.7825 337.967 75.406C338.634 75.0295 339.352 74.8413 340.12 74.8413C341.41 74.8413 342.438 75.2322 343.207 76.0141C343.974 76.7815 344.359 77.9689 344.359 79.5762V85.875H342.554V79.7718C342.554 78.6567 342.33 77.817 341.881 77.2522C341.431 76.6875 340.787 76.4052 339.946 76.4052C339.077 76.4052 338.352 76.7454 337.772 77.4259C337.206 78.0921 336.924 79.0477 336.924 80.293V85.875H335.098V79.7718C335.098 78.6567 334.873 77.817 334.424 77.2522C333.975 76.6875 333.33 76.4052 332.489 76.4052C331.635 76.4052 330.917 76.7454 330.337 77.4259C329.771 78.0921 329.489 79.0477 329.489 80.293V85.875H327.663ZM352.023 86.1357C351.008 86.1357 350.095 85.9039 349.283 85.4406C348.472 84.9772 347.827 84.3256 347.349 83.4858C346.885 82.6315 346.653 81.6324 346.653 80.4885C346.653 79.3446 346.893 78.3526 347.37 77.5128C347.849 76.6585 348.493 75.9997 349.306 75.5364C350.131 75.0729 351.052 74.8413 352.067 74.8413C353.082 74.8413 353.994 75.0729 354.805 75.5364C355.617 75.9997 356.256 76.6585 356.719 77.5128C357.197 78.3526 357.436 79.3446 357.436 80.4885C357.436 81.6324 357.197 82.6315 356.719 83.4858C356.241 84.3256 355.589 84.9772 354.762 85.4406C353.951 85.9039 353.038 86.1357 352.023 86.1357ZM352.023 84.5718C352.646 84.5718 353.226 84.4198 353.762 84.1158C354.299 83.8116 354.733 83.3556 355.066 82.7473C355.4 82.1392 355.566 81.3862 355.566 80.4885C355.566 79.5907 355.4 78.8377 355.066 78.2296C354.748 77.6214 354.32 77.1654 353.784 76.8612C353.248 76.5571 352.675 76.4052 352.067 76.4052C351.444 76.4052 350.864 76.5571 350.327 76.8612C349.791 77.1654 349.357 77.6214 349.023 78.2296C348.69 78.8377 348.523 79.5907 348.523 80.4885C348.523 81.3862 348.69 82.1392 349.023 82.7473C349.357 83.3556 349.783 83.8116 350.306 84.1158C350.842 84.4198 351.414 84.5718 352.023 84.5718ZM359.976 85.875V75.102H361.627L361.781 77.1654C362.114 76.4557 362.62 75.8911 363.301 75.4711C363.983 75.0513 364.824 74.8413 365.824 74.8413V76.7526H365.324C364.686 76.7526 364.099 76.8685 363.563 77.1001C363.027 77.3173 362.599 77.6938 362.281 78.2296C361.961 78.7653 361.802 79.5039 361.802 80.445V85.875H359.976ZM367.873 85.875V75.102H369.525L369.634 77.035C369.983 76.3545 370.483 75.8187 371.134 75.4278C371.786 75.0367 372.526 74.8413 373.352 74.8413C374.626 74.8413 375.641 75.2322 376.395 76.0141C377.164 76.7815 377.548 77.9689 377.548 79.5762V85.875H375.721V79.7718C375.721 77.5273 374.793 76.4052 372.939 76.4052C372.011 76.4052 371.236 76.7454 370.612 77.4259C370.004 78.0921 369.699 79.0477 369.699 80.293V85.875H367.873ZM381.423 72.7128C381.061 72.7128 380.756 72.5968 380.51 72.3652C380.277 72.1191 380.162 71.8149 380.162 71.4529C380.162 71.1054 380.277 70.8159 380.51 70.5841C380.756 70.3525 381.061 70.2366 381.423 70.2366C381.771 70.2366 382.067 70.3525 382.315 70.5841C382.561 70.8159 382.684 71.1054 382.684 71.4529C382.684 71.8149 382.561 72.1191 382.315 72.3652C382.067 72.5968 381.771 72.7128 381.423 72.7128ZM380.51 85.875V75.102H382.336V85.875H380.51ZM385.516 85.875V75.102H387.167L387.277 77.035C387.624 76.3545 388.124 75.8187 388.777 75.4278C389.428 75.0367 390.168 74.8413 390.994 74.8413C392.269 74.8413 393.284 75.2322 394.038 76.0141C394.806 76.7815 395.189 77.9689 395.189 79.5762V85.875H393.363V79.7718C393.363 77.5273 392.436 76.4052 390.581 76.4052C389.654 76.4052 388.877 76.7454 388.254 77.4259C387.646 78.0921 387.341 79.0477 387.341 80.293V85.875H385.516ZM402.217 82.4868C401.609 82.4868 401.05 82.4071 400.543 82.2478L399.456 83.2686C399.617 83.3845 399.812 83.4858 400.043 83.5728C400.289 83.6451 400.638 83.7175 401.086 83.79C401.537 83.8479 402.167 83.913 402.978 83.9854C404.427 84.0867 405.464 84.4198 406.087 84.9846C406.711 85.5492 407.021 86.2878 407.021 87.1999C407.021 87.8226 406.849 88.4163 406.5 88.981C406.167 89.5458 405.645 90.0091 404.934 90.3711C404.239 90.733 403.34 90.9141 402.24 90.9141C401.268 90.9141 400.406 90.7837 399.653 90.5232C398.899 90.2769 398.312 89.8932 397.892 89.3719C397.471 88.8651 397.261 88.2208 397.261 87.4389C397.261 87.0334 397.369 86.5918 397.587 86.1139C397.804 85.6506 398.21 85.209 398.804 84.789C398.486 84.6588 398.21 84.5211 397.979 84.3763C397.761 84.217 397.558 84.0433 397.369 83.8551V83.3556L399.217 81.531C398.363 80.8071 397.935 79.8513 397.935 78.664C397.935 77.9545 398.102 77.3101 398.435 76.731C398.768 76.1517 399.253 75.6955 399.891 75.3625C400.529 75.015 401.304 74.8413 402.217 74.8413C402.84 74.8413 403.406 74.9281 403.914 75.102H407.892V76.4703L405.87 76.5571C406.29 77.1654 406.5 77.8675 406.5 78.664C406.5 79.3735 406.326 80.0179 405.978 80.5971C405.645 81.1762 405.16 81.6396 404.522 81.9871C403.898 82.3201 403.13 82.4868 402.217 82.4868ZM402.217 80.988C402.986 80.988 403.594 80.7925 404.044 80.4016C404.508 79.9962 404.739 79.4169 404.739 78.664C404.739 77.9256 404.508 77.3608 404.044 76.9698C403.594 76.5643 402.986 76.3617 402.217 76.3617C401.435 76.3617 400.812 76.5643 400.348 76.9698C399.899 77.3608 399.674 77.9256 399.674 78.664C399.674 79.4169 399.899 79.9962 400.348 80.4016C400.812 80.7925 401.435 80.988 402.217 80.988ZM399.043 87.2652C399.043 87.9891 399.348 88.5249 399.956 88.8724C400.565 89.2344 401.327 89.4154 402.24 89.4154C403.137 89.4154 403.855 89.22 404.391 88.8289C404.942 88.438 405.218 87.9168 405.218 87.2652C405.218 86.8017 405.029 86.3964 404.652 86.0488C404.275 85.7157 403.58 85.5202 402.565 85.4623C401.768 85.4044 401.08 85.332 400.499 85.2451C399.906 85.5637 399.514 85.9039 399.325 86.266C399.138 86.6425 399.043 86.9755 399.043 87.2652ZM416.813 72.7128C416.451 72.7128 416.147 72.5968 415.9 72.3652C415.669 72.1191 415.552 71.8149 415.552 71.4529C415.552 71.1054 415.669 70.8159 415.9 70.5841C416.147 70.3525 416.451 70.2366 416.813 70.2366C417.162 70.2366 417.459 70.3525 417.705 70.5841C417.951 70.8159 418.074 71.1054 418.074 71.4529C418.074 71.8149 417.951 72.1191 417.705 72.3652C417.459 72.5968 417.162 72.7128 416.813 72.7128ZM415.9 85.875V75.102H417.726V85.875H415.9ZM425.036 86.1357C423.747 86.1357 422.675 85.8099 421.819 85.1583C420.965 84.5067 420.465 83.6233 420.319 82.5084H422.19C422.305 83.0731 422.603 83.5654 423.08 83.9854C423.572 84.3909 424.233 84.5935 425.059 84.5935C425.828 84.5935 426.392 84.4342 426.754 84.1158C427.117 83.7826 427.297 83.3917 427.297 82.9428C427.297 82.2912 427.059 81.8568 426.581 81.6396C426.117 81.4224 425.457 81.2269 424.602 81.0532C424.023 80.9373 423.443 80.7708 422.862 80.5536C422.283 80.3364 421.798 80.0323 421.406 79.6414C421.016 79.236 420.819 78.7074 420.819 78.0558C420.819 77.1147 421.167 76.3471 421.862 75.7536C422.573 75.1453 423.53 74.8413 424.733 74.8413C425.877 74.8413 426.812 75.1309 427.538 75.7101C428.276 76.2748 428.704 77.0857 428.82 78.1428H427.015C426.943 77.5924 426.704 77.1654 426.297 76.8612C425.907 76.5427 425.377 76.3834 424.71 76.3834C424.059 76.3834 423.551 76.521 423.19 76.7961C422.841 77.0712 422.667 77.4331 422.667 77.8821C422.667 78.3165 422.892 78.6567 423.341 78.903C423.805 79.1491 424.428 79.359 425.21 79.5328C425.877 79.6776 426.508 79.8586 427.102 80.0758C427.71 80.2785 428.204 80.5899 428.581 81.0097C428.971 81.4152 429.168 82.0089 429.168 82.7908C429.182 83.7609 428.812 84.5646 428.059 85.2018C427.32 85.8243 426.312 86.1357 425.036 86.1357ZM439.703 85.875L436.552 75.102H438.377L440.66 83.551L443.182 75.102H445.248L447.791 83.551L450.052 75.102H451.9L448.747 85.875H446.878L444.225 76.9915L441.574 85.875H439.703ZM455.028 72.7128C454.666 72.7128 454.361 72.5968 454.115 72.3652C453.884 72.1191 453.768 71.8149 453.768 71.4529C453.768 71.1054 453.884 70.8159 454.115 70.5841C454.361 70.3525 454.666 70.2366 455.028 70.2366C455.376 70.2366 455.673 70.3525 455.919 70.5841C456.166 70.8159 456.289 71.1054 456.289 71.4529C456.289 71.8149 456.166 72.1191 455.919 72.3652C455.673 72.5968 455.376 72.7128 455.028 72.7128ZM454.115 85.875V75.102H455.942V85.875H454.115ZM463.381 85.875C462.396 85.875 461.622 85.6362 461.056 85.1583C460.491 84.6804 460.207 83.8189 460.207 82.5736V76.644H458.338V75.102H460.207L460.448 72.5172H462.035V75.102H465.208V76.644H462.035V82.5736C462.035 83.2542 462.171 83.7175 462.447 83.9637C462.722 84.1953 463.209 84.3112 463.904 84.3112H465.034V85.875H463.381ZM467.528 85.875V70.2366H469.354V76.9482C469.717 76.282 470.231 75.768 470.897 75.406C471.565 75.0295 472.289 74.8413 473.071 74.8413C474.319 74.8413 475.319 75.2322 476.072 76.0141C476.826 76.7815 477.203 77.9689 477.203 79.5762V85.875H475.398V79.7718C475.398 77.5273 474.491 76.4052 472.681 76.4052C471.738 76.4052 470.948 76.7454 470.312 77.4259C469.674 78.0921 469.354 79.0477 469.354 80.293V85.875H467.528ZM160.794 114.636C159.504 114.636 158.432 114.31 157.576 113.658C156.722 113.007 156.222 112.123 156.076 111.008H157.946C158.063 111.573 158.358 112.065 158.837 112.485C159.33 112.891 159.989 113.094 160.816 113.094C161.583 113.094 162.149 112.934 162.511 112.616C162.873 112.283 163.055 111.892 163.055 111.443C163.055 110.791 162.816 110.357 162.337 110.14C161.873 109.922 161.214 109.727 160.36 109.553C159.779 109.437 159.199 109.271 158.62 109.054C158.04 108.836 157.555 108.532 157.163 108.141C156.772 107.736 156.576 107.207 156.576 106.556C156.576 105.615 156.925 104.847 157.62 104.254C158.33 103.645 159.286 103.341 160.489 103.341C161.634 103.341 162.57 103.631 163.293 104.21C164.034 104.775 164.46 105.586 164.577 106.643H162.773C162.7 106.092 162.46 105.665 162.055 105.361C161.663 105.043 161.135 104.883 160.468 104.883C159.816 104.883 159.309 105.021 158.946 105.296C158.599 105.571 158.425 105.933 158.425 106.382C158.425 106.816 158.648 107.157 159.099 107.403C159.563 107.649 160.186 107.859 160.968 108.033C161.634 108.178 162.265 108.359 162.86 108.576C163.468 108.778 163.96 109.09 164.337 109.51C164.729 109.915 164.924 110.509 164.924 111.291C164.939 112.261 164.57 113.065 163.816 113.702C163.077 114.324 162.07 114.636 160.794 114.636ZM172.446 114.636C171.432 114.636 170.52 114.404 169.707 113.941C168.895 113.477 168.251 112.826 167.772 111.986C167.308 111.132 167.077 110.132 167.077 108.988C167.077 107.845 167.316 106.853 167.795 106.013C168.272 105.159 168.918 104.5 169.728 104.036C170.556 103.573 171.476 103.341 172.489 103.341C173.504 103.341 174.417 103.573 175.229 104.036C176.04 104.5 176.678 105.159 177.142 106.013C177.621 106.853 177.86 107.845 177.86 108.988C177.86 110.132 177.621 111.132 177.142 111.986C176.665 112.826 176.012 113.477 175.186 113.941C174.374 114.404 173.461 114.636 172.446 114.636ZM172.446 113.072C173.07 113.072 173.65 112.92 174.186 112.616C174.722 112.312 175.157 111.856 175.491 111.247C175.824 110.639 175.991 109.886 175.991 108.988C175.991 108.091 175.824 107.338 175.491 106.73C175.171 106.121 174.744 105.665 174.207 105.361C173.671 105.057 173.099 104.905 172.489 104.905C171.866 104.905 171.287 105.057 170.751 105.361C170.215 105.665 169.779 106.121 169.446 106.73C169.113 107.338 168.946 108.091 168.946 108.988C168.946 109.886 169.113 110.639 169.446 111.247C169.779 111.856 170.207 112.312 170.73 112.616C171.266 112.92 171.838 113.072 172.446 113.072ZM180.399 114.375V103.602H182.052L182.182 105.166C182.529 104.587 182.993 104.138 183.572 103.819C184.152 103.501 184.805 103.341 185.529 103.341C186.385 103.341 187.117 103.515 187.725 103.863C188.348 104.21 188.827 104.739 189.161 105.448C189.537 104.797 190.051 104.283 190.704 103.906C191.371 103.53 192.088 103.341 192.855 103.341C194.145 103.341 195.175 103.732 195.942 104.514C196.711 105.282 197.095 106.469 197.095 108.076V114.375H195.291V108.272C195.291 107.157 195.065 106.317 194.617 105.752C194.168 105.187 193.522 104.905 192.681 104.905C191.812 104.905 191.088 105.245 190.507 105.926C189.943 106.592 189.661 107.548 189.661 108.793V114.375H187.833V108.272C187.833 107.157 187.61 106.317 187.159 105.752C186.71 105.187 186.066 104.905 185.226 104.905C184.37 104.905 183.652 105.245 183.073 105.926C182.508 106.592 182.226 107.548 182.226 108.793V114.375H180.399ZM204.694 114.636C203.665 114.636 202.751 114.404 201.955 113.941C201.158 113.463 200.527 112.804 200.064 111.964C199.615 111.124 199.389 110.132 199.389 108.988C199.389 107.859 199.615 106.874 200.064 106.035C200.512 105.18 201.135 104.521 201.933 104.058C202.745 103.58 203.679 103.341 204.737 103.341C205.781 103.341 206.68 103.58 207.434 104.058C208.201 104.521 208.788 105.137 209.193 105.904C209.6 106.672 209.803 107.497 209.803 108.38C209.803 108.54 209.795 108.699 209.78 108.858C209.78 109.017 209.78 109.198 209.78 109.401H201.194C201.238 110.227 201.425 110.914 201.759 111.465C202.107 112 202.535 112.406 203.042 112.681C203.563 112.956 204.114 113.094 204.694 113.094C205.447 113.094 206.078 112.92 206.585 112.572C207.093 112.225 207.462 111.754 207.693 111.16H209.498C209.208 112.16 208.65 112.992 207.824 113.658C207.013 114.31 205.97 114.636 204.694 114.636ZM204.694 104.883C203.824 104.883 203.048 105.151 202.368 105.687C201.702 106.208 201.317 106.976 201.215 107.989H207.998C207.955 107.019 207.621 106.259 206.998 105.709C206.375 105.159 205.607 104.883 204.694 104.883ZM217.976 114.375V103.602H219.629L219.758 105.166C220.107 104.587 220.571 104.138 221.15 103.819C221.73 103.501 222.383 103.341 223.107 103.341C223.962 103.341 224.694 103.515 225.303 103.863C225.926 104.21 226.405 104.739 226.738 105.448C227.115 104.797 227.629 104.283 228.282 103.906C228.948 103.53 229.666 103.341 230.433 103.341C231.723 103.341 232.753 103.732 233.52 104.514C234.289 105.282 234.673 106.469 234.673 108.076V114.375H232.868V108.272C232.868 107.157 232.643 106.317 232.194 105.752C231.745 105.187 231.1 104.905 230.259 104.905C229.39 104.905 228.665 105.245 228.085 105.926C227.521 106.592 227.238 107.548 227.238 108.793V114.375H225.411V108.272C225.411 107.157 225.187 106.317 224.737 105.752C224.288 105.187 223.644 104.905 222.803 104.905C221.947 104.905 221.23 105.245 220.65 105.926C220.086 106.592 219.802 107.548 219.802 108.793V114.375H217.976ZM242.272 114.636C241.243 114.636 240.329 114.404 239.532 113.941C238.736 113.463 238.105 112.804 237.641 111.964C237.191 111.124 236.967 110.132 236.967 108.988C236.967 107.859 237.191 106.874 237.641 106.035C238.09 105.18 238.713 104.521 239.511 104.058C240.323 103.58 241.257 103.341 242.315 103.341C243.359 103.341 244.256 103.58 245.01 104.058C245.779 104.521 246.366 105.137 246.771 105.904C247.178 106.672 247.381 107.497 247.381 108.38C247.381 108.54 247.373 108.699 247.358 108.858C247.358 109.017 247.358 109.198 247.358 109.401H238.772C238.815 110.227 239.003 110.914 239.336 111.465C239.685 112 240.113 112.406 240.619 112.681C241.141 112.956 241.692 113.094 242.272 113.094C243.025 113.094 243.656 112.92 244.163 112.572C244.671 112.225 245.04 111.754 245.271 111.16H247.076C246.786 112.16 246.228 112.992 245.402 113.658C244.59 114.31 243.546 114.636 242.272 114.636ZM242.272 104.883C241.402 104.883 240.626 105.151 239.946 105.687C239.279 106.208 238.895 106.976 238.793 107.989H245.576C245.533 107.019 245.199 106.259 244.576 105.709C243.953 105.159 243.184 104.883 242.272 104.883ZM249.801 114.375V103.602H251.452L251.583 105.166C251.931 104.587 252.395 104.138 252.975 103.819C253.554 103.501 254.207 103.341 254.931 103.341C255.787 103.341 256.518 103.515 257.128 103.863C257.751 104.21 258.228 104.739 258.561 105.448C258.938 104.797 259.453 104.283 260.105 103.906C260.771 103.53 261.489 103.341 262.258 103.341C263.547 103.341 264.576 103.732 265.345 104.514C266.113 105.282 266.498 106.469 266.498 108.076V114.375H264.693V108.272C264.693 107.157 264.468 106.317 264.019 105.752C263.57 105.187 262.924 104.905 262.084 104.905C261.214 104.905 260.489 105.245 259.91 105.926C259.345 106.592 259.061 107.548 259.061 108.793V114.375H257.236V108.272C257.236 107.157 257.01 106.317 256.562 105.752C256.113 105.187 255.467 104.905 254.626 104.905C253.772 104.905 253.054 105.245 252.475 105.926C251.909 106.592 251.627 107.548 251.627 108.793V114.375H249.801ZM274.161 114.636C273.146 114.636 272.233 114.404 271.422 113.941C270.61 113.477 269.966 112.826 269.487 111.986C269.023 111.132 268.792 110.132 268.792 108.988C268.792 107.845 269.03 106.853 269.508 106.013C269.987 105.159 270.632 104.5 271.443 104.036C272.269 103.573 273.189 103.341 274.204 103.341C275.219 103.341 276.132 103.573 276.944 104.036C277.755 104.5 278.393 105.159 278.857 106.013C279.334 106.853 279.575 107.845 279.575 108.988C279.575 110.132 279.334 111.132 278.857 111.986C278.378 112.826 277.726 113.477 276.901 113.941C276.088 114.404 275.176 114.636 274.161 114.636ZM274.161 113.072C274.784 113.072 275.363 112.92 275.901 112.616C276.437 112.312 276.871 111.856 277.204 111.247C277.537 110.639 277.704 109.886 277.704 108.988C277.704 108.091 277.537 107.338 277.204 106.73C276.886 106.121 276.458 105.665 275.922 105.361C275.386 105.057 274.814 104.905 274.204 104.905C273.581 104.905 273.002 105.057 272.466 105.361C271.93 105.665 271.494 106.121 271.161 106.73C270.828 107.338 270.661 108.091 270.661 108.988C270.661 109.886 270.828 110.639 271.161 111.247C271.494 111.856 271.922 112.312 272.443 112.616C272.979 112.92 273.553 113.072 274.161 113.072ZM282.113 114.375V103.602H283.765L283.918 105.665C284.251 104.956 284.759 104.391 285.439 103.971C286.121 103.551 286.961 103.341 287.961 103.341V105.253H287.461C286.823 105.253 286.236 105.369 285.7 105.6C285.164 105.817 284.736 106.194 284.418 106.73C284.098 107.265 283.939 108.004 283.939 108.945V114.375H282.113ZM291.185 119.153L293.859 113.332H293.228L288.946 103.602H290.923L294.489 111.986L298.273 103.602H300.163L293.097 119.153H291.185ZM312.105 114.375C311.12 114.375 310.345 114.136 309.779 113.658C309.215 113.18 308.931 112.319 308.931 111.074V105.144H307.062V103.602H308.931L309.171 101.017H310.758V103.602H313.932V105.144H310.758V111.074C310.758 111.754 310.895 112.218 311.171 112.464C311.446 112.695 311.932 112.811 312.627 112.811H313.758V114.375H312.105ZM316.252 114.375V103.602H317.905L318.056 105.665C318.389 104.956 318.897 104.391 319.577 103.971C320.259 103.551 321.099 103.341 322.099 103.341V105.253H321.599C320.961 105.253 320.374 105.369 319.838 105.6C319.302 105.817 318.874 106.194 318.556 106.73C318.238 107.265 318.077 108.004 318.077 108.945V114.375H316.252ZM327.737 114.636C326.838 114.636 326.092 114.484 325.497 114.18C324.902 113.875 324.461 113.47 324.171 112.963C323.882 112.456 323.736 111.906 323.736 111.313C323.736 110.212 324.156 109.365 324.997 108.771C325.838 108.178 326.983 107.881 328.432 107.881H331.345V107.75C331.345 106.809 331.099 106.1 330.606 105.622C330.114 105.13 329.453 104.883 328.627 104.883C327.917 104.883 327.302 105.064 326.779 105.426C326.273 105.774 325.953 106.288 325.823 106.969H323.954C324.026 106.187 324.287 105.528 324.736 104.992C325.2 104.456 325.773 104.051 326.453 103.776C327.135 103.486 327.86 103.341 328.627 103.341C330.135 103.341 331.265 103.747 332.019 104.558C332.788 105.354 333.172 106.418 333.172 107.75V114.375H331.542L331.432 112.442C331.127 113.05 330.678 113.571 330.084 114.006C329.504 114.426 328.722 114.636 327.737 114.636ZM328.019 113.094C328.714 113.094 329.309 112.912 329.801 112.551C330.309 112.189 330.693 111.718 330.954 111.139C331.214 110.56 331.345 109.951 331.345 109.314V109.293H328.584C327.512 109.293 326.751 109.481 326.302 109.857C325.866 110.219 325.649 110.675 325.649 111.226C325.649 111.79 325.853 112.246 326.258 112.594C326.679 112.927 327.266 113.094 328.019 113.094ZM337.02 101.213C336.657 101.213 336.353 101.097 336.107 100.865C335.874 100.619 335.759 100.315 335.759 99.9529C335.759 99.6054 335.874 99.3159 336.107 99.0841C336.353 98.8525 336.657 98.7366 337.02 98.7366C337.367 98.7366 337.664 98.8525 337.91 99.0841C338.158 99.3159 338.281 99.6054 338.281 99.9529C338.281 100.315 338.158 100.619 337.91 100.865C337.664 101.097 337.367 101.213 337.02 101.213ZM336.107 114.375V103.602H337.933V114.375H336.107ZM341.113 114.375V103.602H342.764L342.874 105.535C343.221 104.854 343.721 104.319 344.374 103.928C345.025 103.537 345.764 103.341 346.591 103.341C347.866 103.341 348.881 103.732 349.634 104.514C350.403 105.282 350.786 106.469 350.786 108.076V114.375H348.96V108.272C348.96 106.027 348.033 104.905 346.178 104.905C345.25 104.905 344.474 105.245 343.851 105.926C343.243 106.592 342.938 107.548 342.938 108.793V114.375H341.113ZM354.663 101.213C354.299 101.213 353.996 101.097 353.748 100.865C353.517 100.619 353.401 100.315 353.401 99.9529C353.401 99.6054 353.517 99.3159 353.748 99.0841C353.996 98.8525 354.299 98.7366 354.663 98.7366C355.009 98.7366 355.307 98.8525 355.553 99.0841C355.799 99.3159 355.922 99.6054 355.922 99.9529C355.922 100.315 355.799 100.619 355.553 100.865C355.307 101.097 355.009 101.213 354.663 101.213ZM353.748 114.375V103.602H355.575V114.375H353.748ZM358.755 114.375V103.602H360.407L360.515 105.535C360.863 104.854 361.363 104.319 362.016 103.928C362.668 103.537 363.407 103.341 364.234 103.341C365.508 103.341 366.523 103.732 367.277 104.514C368.044 105.282 368.429 106.469 368.429 108.076V114.375H366.603V108.272C366.603 106.027 365.675 104.905 363.819 104.905C362.893 104.905 362.117 105.245 361.494 105.926C360.886 106.592 360.581 107.548 360.581 108.793V114.375H358.755ZM375.457 110.987C374.849 110.987 374.29 110.907 373.783 110.748L372.696 111.769C372.855 111.885 373.051 111.986 373.283 112.073C373.529 112.145 373.877 112.218 374.326 112.29C374.775 112.348 375.406 112.413 376.218 112.485C377.667 112.587 378.703 112.92 379.327 113.485C379.95 114.049 380.261 114.788 380.261 115.7C380.261 116.323 380.087 116.916 379.74 117.481C379.407 118.046 378.884 118.509 378.174 118.871C377.479 119.233 376.58 119.414 375.479 119.414C374.508 119.414 373.644 119.284 372.891 119.023C372.137 118.777 371.55 118.393 371.131 117.872C370.711 117.365 370.501 116.721 370.501 115.939C370.501 115.533 370.609 115.092 370.826 114.614C371.044 114.151 371.449 113.709 372.044 113.289C371.724 113.159 371.449 113.021 371.217 112.876C371 112.717 370.798 112.543 370.609 112.355V111.856L372.457 110.031C371.601 109.307 371.175 108.351 371.175 107.164C371.175 106.455 371.341 105.81 371.675 105.231C372.008 104.652 372.493 104.196 373.131 103.863C373.768 103.515 374.544 103.341 375.457 103.341C376.08 103.341 376.646 103.428 377.153 103.602H381.13V104.97L379.109 105.057C379.53 105.665 379.74 106.368 379.74 107.164C379.74 107.874 379.566 108.518 379.217 109.097C378.884 109.676 378.399 110.14 377.761 110.487C377.138 110.82 376.369 110.987 375.457 110.987ZM375.457 109.488C376.225 109.488 376.833 109.293 377.282 108.902C377.746 108.496 377.979 107.917 377.979 107.164C377.979 106.426 377.746 105.861 377.282 105.47C376.833 105.064 376.225 104.862 375.457 104.862C374.674 104.862 374.051 105.064 373.587 105.47C373.138 105.861 372.913 106.426 372.913 107.164C372.913 107.917 373.138 108.496 373.587 108.902C374.051 109.293 374.674 109.488 375.457 109.488ZM372.283 115.765C372.283 116.489 372.587 117.025 373.195 117.372C373.805 117.734 374.565 117.915 375.479 117.915C376.377 117.915 377.095 117.72 377.631 117.329C378.182 116.938 378.456 116.417 378.456 115.765C378.456 115.302 378.269 114.896 377.892 114.549C377.515 114.216 376.818 114.02 375.805 113.962C375.008 113.904 374.319 113.832 373.739 113.745C373.144 114.064 372.754 114.404 372.565 114.766C372.377 115.143 372.283 115.476 372.283 115.765ZM389.335 110.161L389.117 99.171H391.096L390.879 110.161H389.335ZM390.161 114.484C389.799 114.484 389.494 114.368 389.248 114.136C389.017 113.89 388.901 113.593 388.901 113.246C388.901 112.898 389.017 112.608 389.248 112.377C389.494 112.131 389.799 112.008 390.161 112.008C390.509 112.008 390.799 112.131 391.032 112.377C391.278 112.608 391.401 112.898 391.401 113.246C391.401 113.593 391.278 113.89 391.032 114.136C390.799 114.368 390.509 114.484 390.161 114.484Z" fill="black"/>
<path d="M113.077 177.879C110.919 177.879 109.041 177.488 107.444 176.703C105.847 175.919 104.613 174.827 103.745 173.427C102.876 172.028 102.441 170.403 102.441 168.555H106.141C106.141 169.703 106.407 170.768 106.94 171.747C107.472 172.7 108.243 173.469 109.252 174.057C110.289 174.617 111.564 174.897 113.077 174.897C115.067 174.897 116.608 174.422 117.701 173.469C118.794 172.517 119.341 171.327 119.341 169.899C119.341 168.723 119.089 167.786 118.584 167.085C118.08 166.358 117.393 165.77 116.524 165.321C115.684 164.873 114.703 164.481 113.582 164.145C112.489 163.809 111.34 163.431 110.134 163.011C107.864 162.227 106.183 161.261 105.09 160.113C103.997 158.937 103.45 157.412 103.45 155.535C103.422 153.968 103.787 152.582 104.543 151.377C105.3 150.146 106.365 149.193 107.738 148.521C109.14 147.821 110.793 147.471 112.699 147.471C114.577 147.471 116.202 147.821 117.575 148.521C118.976 149.221 120.056 150.188 120.812 151.419C121.597 152.651 122.003 154.052 122.031 155.619H118.332C118.332 154.808 118.122 154.01 117.701 153.225C117.281 152.414 116.636 151.755 115.768 151.251C114.927 150.747 113.862 150.495 112.573 150.495C110.975 150.467 109.658 150.873 108.621 151.713C107.612 152.553 107.108 153.716 107.108 155.199C107.108 156.459 107.458 157.425 108.159 158.097C108.887 158.769 109.896 159.329 111.185 159.777C112.475 160.197 113.96 160.688 115.642 161.247C117.043 161.751 118.304 162.339 119.425 163.011C120.546 163.683 121.415 164.552 122.031 165.615C122.676 166.679 122.998 168.038 122.998 169.689C122.998 171.089 122.634 172.419 121.905 173.679C121.177 174.911 120.069 175.919 118.584 176.703C117.127 177.488 115.291 177.879 113.077 177.879ZM136.456 177.879C134.494 177.879 132.728 177.431 131.159 176.535C129.59 175.64 128.342 174.38 127.417 172.755C126.521 171.104 126.072 169.172 126.072 166.959C126.072 164.747 126.535 162.83 127.46 161.205C128.384 159.554 129.632 158.279 131.201 157.383C132.798 156.488 134.578 156.039 136.54 156.039C138.502 156.039 140.267 156.488 141.837 157.383C143.406 158.279 144.639 159.554 145.536 161.205C146.461 162.83 146.923 164.747 146.923 166.959C146.923 169.172 146.461 171.104 145.536 172.755C144.611 174.38 143.35 175.64 141.753 176.535C140.183 177.431 138.418 177.879 136.456 177.879ZM136.456 174.855C137.661 174.855 138.782 174.561 139.819 173.973C140.856 173.385 141.697 172.503 142.341 171.327C142.986 170.151 143.308 168.695 143.308 166.959C143.308 165.224 142.986 163.767 142.341 162.591C141.725 161.415 140.898 160.533 139.861 159.945C138.824 159.357 137.717 159.063 136.54 159.063C135.335 159.063 134.214 159.357 133.177 159.945C132.14 160.533 131.299 161.415 130.654 162.591C130.01 163.767 129.688 165.224 129.688 166.959C129.688 168.695 130.01 170.151 130.654 171.327C131.299 172.503 132.126 173.385 133.135 173.973C134.172 174.561 135.279 174.855 136.456 174.855ZM150.993 186.615V156.543H154.188L154.524 159.987C155.197 158.979 156.148 158.069 157.383 157.257C158.644 156.446 160.241 156.039 162.175 156.039C164.248 156.039 166.056 156.515 167.598 157.467C169.138 158.42 170.33 159.722 171.171 161.373C172.039 163.025 172.474 164.901 172.474 167.001C172.474 169.101 172.039 170.978 171.171 172.629C170.33 174.254 169.125 175.541 167.556 176.493C166.014 177.417 164.206 177.879 162.133 177.879C160.423 177.879 158.896 177.53 157.551 176.829C156.233 176.129 155.224 175.149 154.524 173.889V186.615H150.993ZM161.755 174.813C163.155 174.813 164.388 174.491 165.454 173.847C166.518 173.175 167.359 172.251 167.976 171.075C168.592 169.899 168.901 168.527 168.901 166.959C168.901 165.392 168.592 164.019 167.976 162.843C167.359 161.667 166.518 160.757 165.454 160.113C164.388 159.441 163.155 159.105 161.755 159.105C160.352 159.105 159.12 159.441 158.055 160.113C156.989 160.757 156.148 161.667 155.533 162.843C154.916 164.019 154.608 165.392 154.608 166.959C154.608 168.527 154.916 169.899 155.533 171.075C156.148 172.251 156.989 173.175 158.055 173.847C159.12 174.491 160.352 174.813 161.755 174.813ZM176.549 177.375V147.135H180.08V160.113C180.781 158.825 181.775 157.832 183.065 157.131C184.355 156.404 185.755 156.039 187.269 156.039C189.679 156.039 191.612 156.795 193.07 158.307C194.528 159.791 195.256 162.087 195.256 165.195V177.375H191.767V165.573C191.767 161.234 190.015 159.063 186.512 159.063C184.691 159.063 183.163 159.722 181.93 161.037C180.697 162.326 180.08 164.174 180.08 166.581V177.375H176.549ZM201.909 151.923C201.209 151.923 200.621 151.7 200.143 151.251C199.696 150.776 199.47 150.188 199.47 149.487C199.47 148.815 199.696 148.255 200.143 147.807C200.621 147.359 201.209 147.135 201.909 147.135C202.581 147.135 203.156 147.359 203.632 147.807C204.11 148.255 204.347 148.815 204.347 149.487C204.347 150.188 204.11 150.776 203.632 151.251C203.156 151.7 202.581 151.923 201.909 151.923ZM200.143 177.375V156.543H203.674V177.375H200.143ZM215.918 177.879C214.181 177.879 212.738 177.585 211.588 176.997C210.439 176.409 209.585 175.625 209.024 174.645C208.464 173.666 208.183 172.601 208.183 171.453C208.183 169.325 208.997 167.687 210.621 166.539C212.247 165.392 214.462 164.817 217.263 164.817H222.896V164.565C222.896 162.746 222.42 161.373 221.467 160.449C220.515 159.497 219.239 159.021 217.642 159.021C216.269 159.021 215.077 159.371 214.068 160.071C213.088 160.743 212.471 161.738 212.219 163.053H208.603C208.744 161.541 209.249 160.268 210.117 159.231C211.015 158.195 212.121 157.412 213.438 156.879C214.756 156.32 216.157 156.039 217.642 156.039C220.557 156.039 222.743 156.824 224.2 158.391C225.686 159.932 226.428 161.99 226.428 164.565V177.375H223.275L223.065 173.637C222.476 174.813 221.608 175.821 220.458 176.661C219.338 177.473 217.825 177.879 215.918 177.879ZM216.464 174.897C217.81 174.897 218.96 174.548 219.912 173.847C220.894 173.147 221.635 172.238 222.14 171.117C222.644 169.997 222.896 168.821 222.896 167.589V167.547H217.557C215.484 167.547 214.013 167.912 213.143 168.639C212.303 169.34 211.882 170.222 211.882 171.285C211.882 172.377 212.276 173.259 213.059 173.931C213.873 174.575 215.008 174.897 216.464 174.897ZM250.754 177.879C248.597 177.879 246.719 177.488 245.121 176.703C243.524 175.919 242.291 174.827 241.422 173.427C240.552 172.028 240.119 170.403 240.119 168.555H243.818C243.818 169.703 244.084 170.768 244.617 171.747C245.15 172.7 245.92 173.469 246.929 174.057C247.966 174.617 249.241 174.897 250.754 174.897C252.744 174.897 254.285 174.422 255.378 173.469C256.471 172.517 257.018 171.327 257.018 169.899C257.018 168.723 256.766 167.786 256.261 167.085C255.757 166.358 255.071 165.77 254.201 165.321C253.361 164.873 252.38 164.481 251.259 164.145C250.166 163.809 249.017 163.431 247.812 163.011C245.542 162.227 243.86 161.261 242.767 160.113C241.674 158.937 241.127 157.412 241.127 155.535C241.099 153.968 241.464 152.582 242.22 151.377C242.977 150.146 244.042 149.193 245.415 148.521C246.816 147.821 248.471 147.471 250.376 147.471C252.254 147.471 253.879 147.821 255.252 148.521C256.653 149.221 257.733 150.188 258.489 151.419C259.275 152.651 259.68 154.052 259.708 155.619H256.009C256.009 154.808 255.799 154.01 255.378 153.225C254.958 152.414 254.314 151.755 253.445 151.251C252.604 150.747 251.539 150.495 250.25 150.495C248.652 150.467 247.336 150.873 246.298 151.713C245.289 152.553 244.785 153.716 244.785 155.199C244.785 156.459 245.135 157.425 245.836 158.097C246.564 158.769 247.573 159.329 248.863 159.777C250.152 160.197 251.637 160.688 253.319 161.247C254.719 161.751 255.981 162.339 257.102 163.011C258.224 163.683 259.091 164.552 259.708 165.615C260.353 166.679 260.675 168.038 260.675 169.689C260.675 171.089 260.311 172.419 259.582 173.679C258.854 174.911 257.746 175.919 256.261 176.703C254.803 177.488 252.969 177.879 250.754 177.879ZM272.242 177.879C269.775 177.879 267.813 177.137 266.357 175.653C264.899 174.141 264.171 171.831 264.171 168.723V156.543H267.702V168.345C267.702 172.685 269.481 174.855 273.041 174.855C274.862 174.855 276.362 174.212 277.539 172.923C278.743 171.608 279.346 169.745 279.346 167.337V156.543H282.878V177.375H279.683L279.43 173.637C278.785 174.953 277.818 175.989 276.53 176.745C275.269 177.501 273.839 177.879 272.242 177.879ZM296.088 177.375C294.183 177.375 292.683 176.913 291.59 175.989C290.497 175.065 289.951 173.399 289.951 170.991V159.525H286.335V156.543H289.951L290.413 151.545H293.482V156.543H299.619V159.525H293.482V170.991C293.482 172.307 293.747 173.204 294.28 173.679C294.813 174.128 295.752 174.351 297.097 174.351H299.283V177.375H296.088ZM303.265 177.375V147.135H306.796V160.113C307.497 158.825 308.491 157.832 309.781 157.131C311.07 156.404 312.471 156.039 313.984 156.039C316.394 156.039 318.328 156.795 319.786 158.307C321.244 159.791 321.972 162.087 321.972 165.195V177.375H318.483V165.573C318.483 161.234 316.73 159.063 313.228 159.063C311.407 159.063 309.878 159.722 308.646 161.037C307.413 162.326 306.796 164.174 306.796 166.581V177.375H303.265ZM335.856 177.879C333.866 177.879 332.1 177.431 330.56 176.535C329.018 175.611 327.799 174.338 326.902 172.713C326.033 171.089 325.599 169.172 325.599 166.959C325.599 164.775 326.033 162.872 326.902 161.247C327.77 159.596 328.976 158.321 330.518 157.425C332.086 156.501 333.894 156.039 335.94 156.039C337.958 156.039 339.695 156.501 341.153 157.425C342.638 158.321 343.773 159.512 344.558 160.995C345.342 162.479 345.735 164.075 345.735 165.783C345.735 166.091 345.72 166.4 345.693 166.707C345.693 167.015 345.693 167.366 345.693 167.757H329.088C329.172 169.353 329.536 170.684 330.181 171.747C330.854 172.784 331.68 173.567 332.661 174.099C333.67 174.632 334.735 174.897 335.856 174.897C337.313 174.897 338.532 174.561 339.514 173.889C340.494 173.217 341.209 172.307 341.658 171.159H345.147C344.585 173.091 343.507 174.701 341.91 175.989C340.34 177.249 338.322 177.879 335.856 177.879ZM335.856 159.021C334.175 159.021 332.675 159.539 331.358 160.575C330.069 161.583 329.325 163.067 329.13 165.027H342.246C342.162 163.151 341.517 161.681 340.312 160.617C339.107 159.554 337.622 159.021 335.856 159.021ZM349.574 177.375V156.543H352.769L353.064 160.533C353.708 159.161 354.69 158.069 356.006 157.257C357.323 156.446 358.949 156.039 360.883 156.039V159.735H359.916C358.683 159.735 357.548 159.959 356.511 160.407C355.473 160.827 354.648 161.555 354.03 162.591C353.413 163.628 353.106 165.056 353.106 166.875V177.375H349.574ZM364.006 177.375V147.135H367.537V177.375H364.006ZM379.42 177.879C377.683 177.879 376.239 177.585 375.09 176.997C373.942 176.409 373.086 175.625 372.526 174.645C371.966 173.666 371.685 172.601 371.685 171.453C371.685 169.325 372.497 167.687 374.123 166.539C375.749 165.392 377.962 164.817 380.765 164.817H386.399V164.565C386.399 162.746 385.923 161.373 384.969 160.449C384.016 159.497 382.741 159.021 381.144 159.021C379.77 159.021 378.579 159.371 377.57 160.071C376.59 160.743 375.973 161.738 375.721 163.053H372.105C372.245 161.541 372.75 160.268 373.619 159.231C374.515 158.195 375.623 157.412 376.94 156.879C378.257 156.32 379.659 156.039 381.144 156.039C384.058 156.039 386.244 156.824 387.702 158.391C389.187 159.932 389.93 161.99 389.93 164.565V177.375H386.777L386.567 173.637C385.978 174.813 385.109 175.821 383.96 176.661C382.839 177.473 381.325 177.879 379.42 177.879ZM379.967 174.897C381.312 174.897 382.46 174.548 383.414 173.847C384.394 173.147 385.137 172.238 385.642 171.117C386.146 169.997 386.399 168.821 386.399 167.589V167.547H381.06C378.986 167.547 377.515 167.912 376.646 168.639C375.805 169.34 375.384 170.222 375.384 171.285C375.384 172.377 375.776 173.259 376.562 173.931C377.374 174.575 378.509 174.897 379.967 174.897ZM394.386 177.375V156.543H397.581L397.791 160.281C398.464 158.966 399.43 157.929 400.692 157.173C401.953 156.417 403.382 156.039 404.979 156.039C407.446 156.039 409.409 156.795 410.865 158.307C412.351 159.791 413.093 162.087 413.093 165.195V177.375H409.562V165.573C409.562 161.234 407.769 159.063 404.181 159.063C402.388 159.063 400.888 159.722 399.683 161.037C398.506 162.326 397.917 164.174 397.917 166.581V177.375H394.386ZM427.062 177.879C424.987 177.879 423.166 177.404 421.597 176.451C420.055 175.499 418.849 174.197 417.981 172.545C417.141 170.894 416.72 169.017 416.72 166.917C416.72 164.817 417.154 162.956 418.023 161.331C418.891 159.68 420.097 158.391 421.639 157.467C423.179 156.515 425.002 156.039 427.104 156.039C428.812 156.039 430.326 156.389 431.644 157.089C432.961 157.79 433.983 158.769 434.713 160.029V147.135H438.244V177.375H435.049L434.713 173.931C434.04 174.939 433.073 175.85 431.812 176.661C430.551 177.473 428.967 177.879 427.062 177.879ZM427.44 174.813C428.841 174.813 430.073 174.491 431.139 173.847C432.232 173.175 433.073 172.251 433.662 171.075C434.277 169.899 434.586 168.527 434.586 166.959C434.586 165.392 434.277 164.019 433.662 162.843C433.073 161.667 432.232 160.757 431.139 160.113C430.073 159.441 428.841 159.105 427.44 159.105C426.066 159.105 424.834 159.441 423.741 160.113C422.675 160.757 421.834 161.667 421.218 162.843C420.63 164.019 420.335 165.392 420.335 166.959C420.335 168.527 420.63 169.899 421.218 171.075C421.834 172.251 422.675 173.175 423.741 173.847C424.834 174.491 426.066 174.813 427.44 174.813Z" fill="black"/>
<path d="M181.214 229.254L167.626 227.281L161.552 214.978C161.387 214.641 161.114 214.369 160.776 214.203C159.93 213.786 158.903 214.134 158.48 214.978L152.406 227.281L138.819 229.254C138.444 229.308 138.102 229.483 137.839 229.75C137.522 230.077 137.348 230.514 137.354 230.968C137.36 231.423 137.546 231.856 137.871 232.173L147.702 241.749L145.38 255.271C145.325 255.585 145.36 255.909 145.48 256.204C145.6 256.5 145.801 256.756 146.06 256.944C146.318 257.131 146.624 257.244 146.943 257.266C147.262 257.289 147.58 257.221 147.863 257.073L160.016 250.689L172.17 257.073C172.501 257.248 172.887 257.308 173.257 257.244C174.187 257.083 174.813 256.201 174.653 255.271L172.33 241.749L182.161 232.173C182.428 231.912 182.606 231.568 182.658 231.195C182.804 230.259 182.151 229.393 181.214 229.254Z" fill="#FDA202"/>
<path d="M238.206 229.254L224.618 227.281L218.544 214.978C218.379 214.641 218.105 214.369 217.768 214.203C216.922 213.786 215.895 214.134 215.472 214.978L209.398 227.281L195.81 229.254C195.436 229.308 195.094 229.483 194.831 229.75C194.514 230.077 194.339 230.514 194.345 230.968C194.352 231.423 194.538 231.856 194.863 232.173L204.694 241.749L202.371 255.271C202.317 255.585 202.352 255.909 202.472 256.204C202.592 256.5 202.793 256.756 203.051 256.944C203.309 257.131 203.616 257.244 203.934 257.266C204.254 257.289 204.572 257.221 204.854 257.073L217.008 250.689L229.162 257.073C229.493 257.248 229.879 257.308 230.247 257.244C231.179 257.083 231.805 256.201 231.645 255.271L229.322 241.749L239.153 232.173C239.42 231.912 239.598 231.568 239.65 231.195C239.794 230.259 239.143 229.393 238.206 229.254Z" fill="#FDA202"/>
<path d="M295.198 229.254L281.61 227.281L275.536 214.978C275.369 214.641 275.097 214.369 274.76 214.203C273.914 213.786 272.887 214.134 272.464 214.978L266.39 227.281L252.802 229.254C252.428 229.308 252.086 229.483 251.823 229.75C251.506 230.077 251.331 230.514 251.337 230.968C251.343 231.423 251.529 231.856 251.855 232.173L261.686 241.749L259.363 255.271C259.309 255.585 259.344 255.909 259.464 256.204C259.584 256.5 259.785 256.756 260.043 256.944C260.301 257.131 260.608 257.244 260.926 257.266C261.246 257.289 261.564 257.221 261.846 257.073L274 250.689L286.154 257.073C286.485 257.248 286.87 257.308 287.239 257.244C288.171 257.083 288.797 256.201 288.637 255.271L286.314 241.749L296.145 232.173C296.412 231.912 296.588 231.568 296.642 231.195C296.786 230.259 296.133 229.393 295.198 229.254Z" fill="#FDA202"/>
<path d="M352.19 229.254L338.601 227.281L332.528 214.978C332.361 214.641 332.09 214.369 331.752 214.203C330.906 213.786 329.878 214.134 329.456 214.978L323.382 227.281L309.794 229.254C309.42 229.308 309.076 229.483 308.815 229.75C308.498 230.077 308.323 230.514 308.329 230.968C308.335 231.423 308.521 231.856 308.847 232.173L318.678 241.749L316.355 255.271C316.301 255.585 316.336 255.909 316.456 256.204C316.576 256.5 316.777 256.756 317.035 256.944C317.293 257.131 317.6 257.244 317.918 257.266C318.238 257.289 318.556 257.221 318.838 257.073L330.992 250.689L343.146 257.073C343.477 257.248 343.862 257.308 344.231 257.244C345.163 257.083 345.79 256.201 345.629 255.271L343.306 241.749L353.137 232.173C353.404 231.912 353.58 231.568 353.634 231.195C353.778 230.259 353.125 229.393 352.19 229.254Z" fill="#FDA202"/>
<path d="M409.182 229.254L395.593 227.281L389.52 214.978C389.353 214.641 389.08 214.369 388.744 214.203C387.898 213.786 386.87 214.134 386.448 214.978L380.374 227.281L366.786 229.254C366.412 229.308 366.069 229.483 365.807 229.75C365.49 230.077 365.315 230.514 365.321 230.968C365.327 231.423 365.513 231.856 365.839 232.173L375.67 241.749L373.347 255.271C373.293 255.585 373.328 255.909 373.448 256.204C373.568 256.5 373.769 256.756 374.027 256.944C374.285 257.131 374.592 257.244 374.91 257.266C375.228 257.289 375.548 257.221 375.83 257.073L387.984 250.689L400.138 257.073C400.469 257.248 400.854 257.308 401.223 257.244C402.154 257.083 402.78 256.201 402.621 255.271L400.298 241.749L410.128 232.173C410.396 231.912 410.572 231.568 410.626 231.195C410.77 230.259 410.117 229.393 409.182 229.254Z" fill="#FDA202"/>
</svg>
