<svg width="356" height="214" viewBox="0 0 356 214" fill="none" xmlns="http://www.w3.org/2000/svg">
<path d="M346.247 0H9.75342C4.36676 0 0 4.35505 0 9.72727V204.273C0 209.645 4.36676 214 9.75342 214H346.247C351.633 214 356 209.645 356 204.273V9.72727C356 4.35505 351.633 0 346.247 0Z" fill="white"/>
<path d="M50.4658 55.8577C49.5431 55.8577 48.7334 55.6464 48.0367 55.2239C47.3399 54.7919 46.7986 54.1957 46.4126 53.435C46.0265 52.6651 45.8335 51.7777 45.8335 50.773C45.8335 49.7682 46.0265 48.8809 46.4126 48.1109C46.808 47.3409 47.3635 46.7399 48.079 46.308C48.804 45.876 49.6562 45.6601 50.6353 45.6601C51.7463 45.6601 52.669 45.9277 53.4034 46.4629C54.1472 46.9982 54.6274 47.7353 54.8439 48.6743H53.474C53.3422 48.0827 53.0268 47.6132 52.5278 47.2658C52.0382 46.9183 51.4074 46.7446 50.6353 46.7446C49.9103 46.7446 49.2795 46.909 48.7428 47.2376C48.2061 47.5568 47.7872 48.017 47.4859 48.618C47.194 49.2189 47.0481 49.9373 47.0481 50.773C47.0481 51.6087 47.194 52.327 47.4859 52.928C47.7777 53.529 48.1826 53.9938 48.7004 54.3224C49.2183 54.6417 49.8209 54.8013 50.5082 54.8013C51.5628 54.8013 52.3583 54.4962 52.895 53.8858C53.4316 53.2661 53.7377 52.4209 53.813 51.3505H50.9601V50.4208H55.0276V55.6886H53.9401L53.8413 54.0688C53.4834 54.6417 53.0457 55.083 52.5278 55.3929C52.01 55.7027 51.3226 55.8577 50.4658 55.8577ZM56.8329 55.6886V48.7025H57.9063L58.0052 50.0406C58.2217 49.5804 58.5513 49.2143 58.9938 48.9419C59.4363 48.6696 59.9824 48.5334 60.6321 48.5334V49.7729H60.3072C59.893 49.7729 59.5116 49.8481 59.1632 49.9983C58.8149 50.1391 58.5371 50.3833 58.33 50.7307C58.1229 51.0781 58.0193 51.5571 58.0193 52.1674V55.6886H56.8329ZM64.8509 55.8577C64.1824 55.8577 63.5893 55.7074 63.0715 55.4069C62.5536 55.0971 62.1441 54.6698 61.8428 54.1253C61.5508 53.5806 61.4049 52.9374 61.4049 52.1956C61.4049 51.4631 61.5508 50.8246 61.8428 50.28C62.1346 49.726 62.5395 49.2987 63.0574 48.9982C63.5846 48.6884 64.1919 48.5334 64.8792 48.5334C65.5571 48.5334 66.1408 48.6884 66.6304 48.9982C67.1294 49.2987 67.5108 49.6978 67.7744 50.1954C68.038 50.6932 68.1698 51.2284 68.1698 51.8012C68.1698 51.9044 68.1651 52.0077 68.1558 52.111C68.1558 52.2143 68.1558 52.3317 68.1558 52.4632H62.5772C62.6054 52.9985 62.7278 53.4445 62.9443 53.8012C63.1703 54.1487 63.4481 54.4116 63.7776 54.59C64.1166 54.7684 64.4743 54.8576 64.8509 54.8576C65.3405 54.8576 65.7501 54.745 66.0797 54.5196C66.4092 54.2942 66.6493 53.9891 66.7999 53.6041H67.9721C67.7838 54.252 67.4213 54.7919 66.8847 55.2239C66.3574 55.6464 65.6795 55.8577 64.8509 55.8577ZM64.8509 49.5335C64.286 49.5335 63.7823 49.7072 63.3398 50.0546C62.9067 50.3927 62.6572 50.8904 62.5912 51.5476H66.9976C66.9694 50.9185 66.7528 50.4255 66.348 50.0687C65.9431 49.7119 65.4441 49.5335 64.8509 49.5335ZM72.0725 55.8577C71.4888 55.8577 71.0039 55.7591 70.6178 55.5619C70.2318 55.3647 69.9446 55.1018 69.7564 54.7731C69.5681 54.4445 69.4739 54.0876 69.4739 53.7027C69.4739 52.989 69.7469 52.4397 70.293 52.0547C70.8391 51.6697 71.5829 51.4772 72.5244 51.4772H74.417V51.3927C74.417 50.7824 74.2568 50.3223 73.9367 50.0124C73.6166 49.6931 73.1882 49.5335 72.6516 49.5335C72.1902 49.5335 71.7901 49.6508 71.4512 49.8856C71.1216 50.111 70.9144 50.4443 70.8297 50.8857H69.6152C69.6622 50.3786 69.8317 49.9513 70.1235 49.6039C70.4248 49.2565 70.7967 48.9935 71.2393 48.8151C71.6818 48.6273 72.1525 48.5334 72.6516 48.5334C73.6308 48.5334 74.3652 48.7964 74.8547 49.3222C75.3538 49.8386 75.6033 50.5288 75.6033 51.3927V55.6886H74.5441L74.4735 54.4351C74.2758 54.8295 73.9838 55.1675 73.5978 55.4492C73.2212 55.7215 72.7128 55.8577 72.0725 55.8577ZM72.2561 54.8576C72.7081 54.8576 73.0941 54.7402 73.4142 54.5055C73.7437 54.2708 73.9933 53.9655 74.1627 53.59C74.3322 53.2144 74.417 52.82 74.417 52.4068V52.3927H72.6233C71.9265 52.3927 71.4322 52.5148 71.1404 52.759C70.858 52.9937 70.7167 53.2895 70.7167 53.6463C70.7167 54.0125 70.8485 54.3083 71.1121 54.5337C71.3852 54.7497 71.7665 54.8576 72.2561 54.8576ZM79.958 55.6886C79.3178 55.6886 78.814 55.5338 78.4468 55.2239C78.0797 54.914 77.896 54.3553 77.896 53.5478V49.7025H76.6814V48.7025H77.896L78.0514 47.0263H79.0823V48.7025H81.1443V49.7025H79.0823V53.5478C79.0823 53.9891 79.1718 54.2896 79.3507 54.4492C79.5296 54.5994 79.845 54.6746 80.2969 54.6746H81.0314V55.6886H79.958ZM87.8014 55.6886L85.7536 48.7025H86.9399L88.4228 54.1816L90.0611 48.7025H91.4028L93.0552 54.1816L94.524 48.7025H95.7244L93.6766 55.6886H92.462L90.7389 49.9278L89.016 55.6886H87.8014ZM99.1182 55.8577C98.535 55.8577 98.0502 55.7591 97.664 55.5619C97.2778 55.3647 96.9907 55.1018 96.8024 54.7731C96.6141 54.4445 96.5199 54.0876 96.5199 53.7027C96.5199 52.989 96.793 52.4397 97.3391 52.0547C97.8854 51.6697 98.6286 51.4772 99.5708 51.4772H101.463V51.3927C101.463 50.7824 101.303 50.3223 100.983 50.0124C100.662 49.6931 100.234 49.5335 99.6976 49.5335C99.2362 49.5335 98.8363 49.6508 98.4969 49.8856C98.1672 50.111 97.9605 50.4443 97.8756 50.8857H96.6611C96.7082 50.3786 96.8777 49.9513 97.1696 49.6039C97.4709 49.2565 97.8425 48.9935 98.2853 48.8151C98.7281 48.6273 99.1982 48.5334 99.6976 48.5334C100.677 48.5334 101.411 48.7964 101.901 49.3222C102.4 49.8386 102.649 50.5288 102.649 51.3927V55.6886H101.59L101.52 54.4351C101.322 54.8295 101.03 55.1675 100.644 55.4492C100.267 55.7215 99.759 55.8577 99.1182 55.8577ZM99.3026 54.8576C99.7541 54.8576 100.14 54.7402 100.46 54.5055C100.79 54.2708 101.04 53.9655 101.208 53.59C101.378 53.2144 101.463 52.82 101.463 52.4068V52.3927H99.6693C98.9729 52.3927 98.4784 52.5148 98.1868 52.759C97.9039 52.9937 97.7625 53.2895 97.7625 53.6463C97.7625 54.0125 97.8942 54.3083 98.1585 54.5337C98.4316 54.7497 98.8129 54.8576 99.3026 54.8576ZM104.985 58.7874L106.722 55.0126H106.312L103.53 48.7025H104.815L107.132 54.1393L109.589 48.7025H110.817L106.227 58.7874H104.985ZM118.575 55.6886C117.935 55.6886 117.431 55.5338 117.065 55.2239C116.697 54.914 116.513 54.3553 116.513 53.5478V49.7025H115.299V48.7025H116.513L116.669 47.0263H117.699V48.7025H119.761V49.7025H117.699V53.5478C117.699 53.9891 117.789 54.2896 117.968 54.4492C118.147 54.5994 118.462 54.6746 118.915 54.6746H119.649V55.6886H118.575ZM124.267 55.8577C123.609 55.8577 123.015 55.7074 122.488 55.4069C121.961 55.1065 121.542 54.6839 121.231 54.1393C120.93 53.5853 120.78 52.9374 120.78 52.1956C120.78 51.4538 120.935 50.8105 121.246 50.2659C121.556 49.7119 121.975 49.2847 122.502 48.9842C123.038 48.6836 123.636 48.5334 124.296 48.5334C124.955 48.5334 125.548 48.6836 126.076 48.9842C126.602 49.2847 127.017 49.7119 127.318 50.2659C127.628 50.8105 127.784 51.4538 127.784 52.1956C127.784 52.9374 127.628 53.5853 127.318 54.1393C127.007 54.6839 126.584 55.1065 126.047 55.4069C125.52 55.7074 124.927 55.8577 124.267 55.8577ZM124.267 54.8435C124.672 54.8435 125.049 54.745 125.398 54.5478C125.746 54.3505 126.028 54.0548 126.244 53.6604C126.461 53.2661 126.569 52.7777 126.569 52.1956C126.569 51.6134 126.461 51.1251 126.244 50.7307C126.038 50.3363 125.76 50.0406 125.411 49.8433C125.063 49.6461 124.692 49.5476 124.296 49.5476C123.891 49.5476 123.514 49.6461 123.166 49.8433C122.818 50.0406 122.535 50.3363 122.319 50.7307C122.102 51.1251 121.994 51.6134 121.994 52.1956C121.994 52.7777 122.102 53.2661 122.319 53.6604C122.535 54.0548 122.813 54.3505 123.152 54.5478C123.501 54.745 123.872 54.8435 124.267 54.8435ZM135.854 55.8577C135.017 55.8577 134.32 55.6464 133.764 55.2239C133.209 54.8013 132.885 54.2285 132.79 53.5054H134.004C134.08 53.8717 134.273 54.1909 134.584 54.4633C134.904 54.7262 135.333 54.8576 135.869 54.8576C136.368 54.8576 136.735 54.7543 136.97 54.5478C137.206 54.3318 137.323 54.0783 137.323 53.7871C137.323 53.3646 137.168 53.0829 136.857 52.942C136.556 52.8012 136.128 52.6744 135.573 52.5618C135.196 52.4866 134.819 52.3786 134.442 52.2378C134.066 52.0969 133.751 51.8998 133.496 51.6463C133.243 51.3833 133.115 51.0406 133.115 50.618C133.115 50.0077 133.341 49.51 133.793 49.1251C134.254 48.7306 134.875 48.5334 135.657 48.5334C136.401 48.5334 137.008 48.7213 137.479 49.0968C137.959 49.4631 138.237 49.9889 138.312 50.6744H137.14C137.093 50.3175 136.937 50.0406 136.674 49.8433C136.42 49.6368 136.076 49.5335 135.643 49.5335C135.22 49.5335 134.89 49.6227 134.655 49.8011C134.429 49.9795 134.315 50.2142 134.315 50.5054C134.315 50.7871 134.462 51.0077 134.753 51.1674C135.055 51.327 135.459 51.4631 135.968 51.5758C136.401 51.6697 136.81 51.7871 137.197 51.928C137.592 52.0594 137.912 52.2613 138.157 52.5336C138.411 52.7965 138.539 53.1815 138.539 53.6886C138.547 54.3177 138.307 54.8389 137.818 55.2521C137.338 55.6558 136.684 55.8577 135.854 55.8577ZM142.684 55.6886C142.044 55.6886 141.54 55.5338 141.173 55.2239C140.805 54.914 140.622 54.3553 140.622 53.5478V49.7025H139.408V48.7025H140.622L140.777 47.0263H141.808V48.7025H143.87V49.7025H141.808V53.5478C141.808 53.9891 141.898 54.2896 142.076 54.4492C142.256 54.5994 142.571 54.6746 143.022 54.6746H143.757V55.6886H142.684ZM147.708 55.8577C147.124 55.8577 146.639 55.7591 146.253 55.5619C145.867 55.3647 145.58 55.1018 145.391 54.7731C145.203 54.4445 145.109 54.0876 145.109 53.7027C145.109 52.989 145.382 52.4397 145.928 52.0547C146.474 51.6697 147.218 51.4772 148.159 51.4772H150.052V51.3927C150.052 50.7824 149.892 50.3223 149.572 50.0124C149.252 49.6931 148.824 49.5335 148.286 49.5335C147.825 49.5335 147.425 49.6508 147.087 49.8856C146.757 50.111 146.549 50.4443 146.465 50.8857H145.25C145.298 50.3786 145.466 49.9513 145.759 49.6039C146.059 49.2565 146.432 48.9935 146.874 48.8151C147.317 48.6273 147.788 48.5334 148.286 48.5334C149.265 48.5334 150 48.7964 150.489 49.3222C150.989 49.8386 151.239 50.5288 151.239 51.3927V55.6886H150.179L150.108 54.4351C149.911 54.8295 149.619 55.1675 149.233 55.4492C148.856 55.7215 148.348 55.8577 147.708 55.8577ZM147.891 54.8576C148.343 54.8576 148.729 54.7402 149.049 54.5055C149.379 54.2708 149.628 53.9655 149.798 53.59C149.968 53.2144 150.052 52.82 150.052 52.4068V52.3927H148.258C147.562 52.3927 147.067 52.5148 146.775 52.759C146.493 52.9937 146.352 53.2895 146.352 53.6463C146.352 54.0125 146.484 54.3083 146.747 54.5337C147.02 54.7497 147.402 54.8576 147.891 54.8576ZM153.018 55.6886V48.7025H154.091L154.19 50.0406C154.406 49.5804 154.736 49.2143 155.179 48.9419C155.622 48.6696 156.168 48.5334 156.818 48.5334V49.7729H156.493C156.078 49.7729 155.697 49.8481 155.349 49.9983C154.999 50.1391 154.722 50.3833 154.515 50.7307C154.308 51.0781 154.205 51.5571 154.205 52.1674V55.6886H153.018ZM160.917 55.6886C160.276 55.6886 159.773 55.5338 159.405 55.2239C159.038 54.914 158.855 54.3553 158.855 53.5478V49.7025H157.64V48.7025H158.855L159.01 47.0263H160.041V48.7025H162.103V49.7025H160.041V53.5478C160.041 53.9891 160.131 54.2896 160.309 54.4492C160.489 54.5994 160.804 54.6746 161.255 54.6746H161.99V55.6886H160.917ZM170.54 55.8577C169.88 55.8577 169.287 55.7074 168.761 55.4069C168.233 55.1065 167.814 54.6839 167.503 54.1393C167.202 53.5853 167.051 52.9374 167.051 52.1956C167.051 51.4538 167.207 50.8105 167.517 50.2659C167.828 49.7119 168.247 49.2847 168.774 48.9842C169.311 48.6836 169.909 48.5334 170.568 48.5334C171.227 48.5334 171.82 48.6836 172.347 48.9842C172.875 49.2847 173.289 49.7119 173.59 50.2659C173.901 50.8105 174.057 51.4538 174.057 52.1956C174.057 52.9374 173.901 53.5853 173.59 54.1393C173.279 54.6839 172.856 55.1065 172.32 55.4069C171.792 55.7074 171.199 55.8577 170.54 55.8577ZM170.54 54.8435C170.944 54.8435 171.321 54.745 171.669 54.5478C172.018 54.3505 172.3 54.0548 172.517 53.6604C172.733 53.2661 172.841 52.7777 172.841 52.1956C172.841 51.6134 172.733 51.1251 172.517 50.7307C172.31 50.3363 172.032 50.0406 171.684 49.8433C171.335 49.6461 170.963 49.5476 170.568 49.5476C170.163 49.5476 169.787 49.6461 169.438 49.8433C169.089 50.0406 168.807 50.3363 168.591 50.7307C168.374 51.1251 168.266 51.6134 168.266 52.1956C168.266 52.7777 168.374 53.2661 168.591 53.6604C168.807 54.0548 169.085 54.3505 169.424 54.5478C169.772 54.745 170.145 54.8435 170.54 54.8435ZM176.087 55.6886V49.7025H175.028V48.7025H176.087V47.4912C176.087 46.815 176.257 46.322 176.596 46.0122C176.935 45.7023 177.428 45.5474 178.078 45.5474H178.784V46.5615H178.262C177.904 46.5615 177.65 46.6366 177.5 46.7869C177.348 46.9278 177.273 47.1719 177.273 47.5193V48.7025H178.997V49.7025H177.273V55.6886H176.087ZM180.79 55.6886V49.7025H179.731V48.7025H180.79V47.4912C180.79 46.815 180.959 46.322 181.299 46.0122C181.638 45.7023 182.132 45.5474 182.781 45.5474H183.487V46.5615H182.965C182.608 46.5615 182.353 46.6366 182.203 46.7869C182.052 46.9278 181.976 47.1719 181.976 47.5193V48.7025H183.7V49.7025H181.976V55.6886H180.79ZM188.85 55.6886V48.7025H189.923L190.007 49.7166C190.234 49.341 190.535 49.0499 190.912 48.8434C191.288 48.6367 191.711 48.5334 192.182 48.5334C192.738 48.5334 193.213 48.6461 193.609 48.8715C194.014 49.0968 194.324 49.4395 194.541 49.8997C194.786 49.4772 195.12 49.1438 195.543 48.8997C195.977 48.6555 196.443 48.5334 196.942 48.5334C197.78 48.5334 198.448 48.7869 198.947 49.294C199.447 49.7917 199.696 50.5617 199.696 51.604V55.6886H198.524V51.7308C198.524 51.0077 198.378 50.4631 198.086 50.0969C197.794 49.7307 197.375 49.5476 196.829 49.5476C196.264 49.5476 195.793 49.7682 195.417 50.2095C195.05 50.6415 194.866 51.2613 194.866 52.0688V55.6886H193.68V51.7308C193.68 51.0077 193.533 50.4631 193.242 50.0969C192.95 49.7307 192.531 49.5476 191.984 49.5476C191.429 49.5476 190.963 49.7682 190.587 50.2095C190.219 50.6415 190.036 51.2613 190.036 52.0688V55.6886H188.85ZM202.038 58.7874L203.775 55.0126H203.367L200.584 48.7025H201.87L204.185 54.1393L206.643 48.7025H207.872L203.282 58.7874H202.038ZM212.862 55.6886V48.7025H213.935L214.019 49.7166C214.246 49.341 214.547 49.0499 214.924 48.8434C215.3 48.6367 215.723 48.5334 216.194 48.5334C216.749 48.5334 217.225 48.6461 217.62 48.8715C218.025 49.0968 218.336 49.4395 218.553 49.8997C218.798 49.4772 219.132 49.1438 219.555 48.8997C219.988 48.6555 220.455 48.5334 220.954 48.5334C221.792 48.5334 222.46 48.7869 222.959 49.294C223.458 49.7917 223.707 50.5617 223.707 51.604V55.6886H222.535V51.7308C222.535 51.0077 222.39 50.4631 222.098 50.0969C221.806 49.7307 221.387 49.5476 220.841 49.5476C220.276 49.5476 219.805 49.7682 219.429 50.2095C219.061 50.6415 218.878 51.2613 218.878 52.0688V55.6886H217.692V51.7308C217.692 51.0077 217.545 50.4631 217.254 50.0969C216.962 49.7307 216.543 49.5476 215.996 49.5476C215.441 49.5476 214.975 49.7682 214.599 50.2095C214.231 50.6415 214.048 51.2613 214.048 52.0688V55.6886H212.862ZM228.687 55.8577C228.027 55.8577 227.434 55.7074 226.907 55.4069C226.38 55.1065 225.96 54.6839 225.65 54.1393C225.349 53.5853 225.198 52.9374 225.198 52.1956C225.198 51.4538 225.354 50.8105 225.664 50.2659C225.975 49.7119 226.394 49.2847 226.921 48.9842C227.458 48.6836 228.056 48.5334 228.715 48.5334C229.374 48.5334 229.967 48.6836 230.494 48.9842C231.022 49.2847 231.436 49.7119 231.737 50.2659C232.048 50.8105 232.203 51.4538 232.203 52.1956C232.203 52.9374 232.048 53.5853 231.737 54.1393C231.426 54.6839 231.003 55.1065 230.466 55.4069C229.939 55.7074 229.346 55.8577 228.687 55.8577ZM228.687 54.8435C229.091 54.8435 229.468 54.745 229.816 54.5478C230.165 54.3505 230.447 54.0548 230.664 53.6604C230.88 53.2661 230.988 52.7777 230.988 52.1956C230.988 51.6134 230.88 51.1251 230.664 50.7307C230.457 50.3363 230.179 50.0406 229.831 49.8433C229.482 49.6461 229.11 49.5476 228.715 49.5476C228.31 49.5476 227.934 49.6461 227.584 49.8433C227.236 50.0406 226.954 50.3363 226.738 50.7307C226.521 51.1251 226.413 51.6134 226.413 52.1956C226.413 52.7777 226.521 53.2661 226.738 53.6604C226.954 54.0548 227.231 54.3505 227.571 54.5478C227.919 54.745 228.291 54.8435 228.687 54.8435ZM233.853 55.6886V48.7025H234.926L235.025 50.0406C235.242 49.5804 235.571 49.2143 236.013 48.9419C236.456 48.6696 237.002 48.5334 237.652 48.5334V49.7729H237.327C236.913 49.7729 236.531 49.8481 236.183 49.9983C235.835 50.1391 235.557 50.3833 235.35 50.7307C235.142 51.0781 235.039 51.5571 235.039 52.1674V55.6886H233.853ZM238.983 55.6886V48.7025H240.056L240.127 49.9561C240.354 49.5147 240.678 49.1673 241.102 48.9138C241.525 48.6602 242.006 48.5334 242.542 48.5334C243.37 48.5334 244.03 48.7869 244.519 49.294C245.019 49.7917 245.268 50.5617 245.268 51.604V55.6886H244.081V51.7308C244.081 50.2753 243.479 49.5476 242.274 49.5476C241.671 49.5476 241.168 49.7682 240.762 50.2095C240.367 50.6415 240.169 51.2613 240.169 52.0688V55.6886H238.983ZM247.786 47.1531C247.551 47.1531 247.353 47.0779 247.193 46.9278C247.042 46.7681 246.966 46.5709 246.966 46.3361C246.966 46.1108 247.042 45.923 247.193 45.7727C247.353 45.6226 247.551 45.5474 247.786 45.5474C248.012 45.5474 248.204 45.6226 248.365 45.7727C248.525 45.923 248.605 46.1108 248.605 46.3361C248.605 46.5709 248.525 46.7681 248.365 46.9278C248.204 47.0779 248.012 47.1531 247.786 47.1531ZM247.193 55.6886V48.7025H248.379V55.6886H247.193ZM250.445 55.6886V48.7025H251.517L251.589 49.9561C251.814 49.5147 252.139 49.1673 252.563 48.9138C252.986 48.6602 253.467 48.5334 254.004 48.5334C254.832 48.5334 255.491 48.7869 255.981 49.294C256.48 49.7917 256.729 50.5617 256.729 51.604V55.6886H255.543V51.7308C255.543 50.2753 254.94 49.5476 253.735 49.5476C253.133 49.5476 252.628 49.7682 252.224 50.2095C251.829 50.6415 251.631 51.2613 251.631 52.0688V55.6886H250.445ZM261.294 53.4914C260.899 53.4914 260.536 53.4398 260.207 53.3365L259.501 53.9984C259.605 54.0736 259.732 54.1393 259.882 54.1957C260.042 54.2426 260.268 54.2896 260.56 54.3365C260.852 54.3741 261.262 54.4163 261.789 54.4633C262.73 54.5289 263.404 54.745 263.809 55.1112C264.213 55.4774 264.415 55.9563 264.415 56.5478C264.415 56.9516 264.303 57.3366 264.077 57.7029C263.86 58.0691 263.521 58.3696 263.06 58.6043C262.608 58.839 262.024 58.9564 261.309 58.9564C260.678 58.9564 260.118 58.8719 259.628 58.7029C259.139 58.5432 258.757 58.2944 258.484 57.9564C258.211 57.6277 258.075 57.2099 258.075 56.7028C258.075 56.4399 258.145 56.1535 258.286 55.8436C258.428 55.5431 258.691 55.2567 259.077 54.9844C258.871 54.8999 258.691 54.8106 258.541 54.7168C258.399 54.6135 258.268 54.5008 258.145 54.3788V54.0548L259.346 52.8716C258.791 52.4022 258.513 51.7824 258.513 51.0124C258.513 50.5523 258.621 50.1345 258.837 49.7589C259.054 49.3832 259.369 49.0874 259.783 48.8715C260.198 48.6461 260.701 48.5334 261.294 48.5334C261.699 48.5334 262.067 48.5898 262.396 48.7025H264.981V49.5898L263.667 49.6461C263.94 50.0406 264.077 50.4959 264.077 51.0124C264.077 51.4725 263.964 51.8904 263.737 52.266C263.521 52.6416 263.206 52.942 262.791 53.1674C262.387 53.3834 261.887 53.4914 261.294 53.4914ZM261.294 52.5195C261.794 52.5195 262.189 52.3927 262.481 52.1392C262.783 51.8763 262.933 51.5006 262.933 51.0124C262.933 50.5336 262.783 50.1673 262.481 49.9137C262.189 49.6508 261.794 49.5194 261.294 49.5194C260.786 49.5194 260.381 49.6508 260.08 49.9137C259.788 50.1673 259.642 50.5336 259.642 51.0124C259.642 51.5006 259.788 51.8763 260.08 52.1392C260.381 52.3927 260.786 52.5195 261.294 52.5195ZM259.232 56.5902C259.232 57.0596 259.43 57.4071 259.825 57.6324C260.221 57.8672 260.716 57.9846 261.309 57.9846C261.892 57.9846 262.358 57.8578 262.707 57.6042C263.064 57.3507 263.244 57.0127 263.244 56.5902C263.244 56.2896 263.121 56.0268 262.876 55.8014C262.631 55.5853 262.18 55.4586 261.521 55.421C261.003 55.3835 260.556 55.3365 260.178 55.2802C259.793 55.4868 259.539 55.7074 259.416 55.9422C259.294 56.1864 259.232 56.4023 259.232 56.5902ZM270.777 47.1531C270.541 47.1531 270.343 47.0779 270.184 46.9278C270.033 46.7681 269.957 46.5709 269.957 46.3361C269.957 46.1108 270.033 45.923 270.184 45.7727C270.343 45.6226 270.541 45.5474 270.777 45.5474C271.003 45.5474 271.196 45.6226 271.356 45.7727C271.516 45.923 271.596 46.1108 271.596 46.3361C271.596 46.5709 271.516 46.7681 271.356 46.9278C271.196 47.0779 271.003 47.1531 270.777 47.1531ZM270.184 55.6886V48.7025H271.37V55.6886H270.184ZM276.118 55.8577C275.281 55.8577 274.584 55.6464 274.028 55.2239C273.473 54.8013 273.149 54.2285 273.054 53.5054H274.269C274.344 53.8717 274.537 54.1909 274.848 54.4633C275.167 54.7262 275.597 54.8576 276.133 54.8576C276.632 54.8576 276.999 54.7543 277.234 54.5478C277.47 54.3318 277.587 54.0783 277.587 53.7871C277.587 53.3646 277.432 53.0829 277.122 52.942C276.821 52.8012 276.392 52.6744 275.837 52.5618C275.46 52.4866 275.084 52.3786 274.706 52.2378C274.33 52.0969 274.015 51.8998 273.76 51.6463C273.507 51.3833 273.379 51.0406 273.379 50.618C273.379 50.0077 273.605 49.51 274.057 49.1251C274.518 48.7306 275.14 48.5334 275.921 48.5334C276.665 48.5334 277.272 48.7213 277.743 49.0968C278.223 49.4631 278.501 49.9889 278.576 50.6744H277.404C277.357 50.3175 277.202 50.0406 276.938 49.8433C276.684 49.6368 276.34 49.5335 275.907 49.5335C275.484 49.5335 275.154 49.6227 274.919 49.8011C274.693 49.9795 274.579 50.2142 274.579 50.5054C274.579 50.7871 274.726 51.0077 275.017 51.1674C275.319 51.327 275.723 51.4631 276.232 51.5758C276.665 51.6697 277.074 51.7871 277.461 51.928C277.856 52.0594 278.176 52.2613 278.421 52.5336C278.675 52.7965 278.803 53.1815 278.803 53.6886C278.811 54.3177 278.571 54.8389 278.082 55.2521C277.602 55.6558 276.948 55.8577 276.118 55.8577ZM285.647 55.6886L283.599 48.7025H284.785L286.268 54.1816L287.906 48.7025H289.249L290.901 54.1816L292.37 48.7025H293.57L291.522 55.6886H290.308L288.584 49.9278L286.862 55.6886H285.647ZM295.602 47.1531C295.367 47.1531 295.169 47.0779 295.009 46.9278C294.859 46.7681 294.784 46.5709 294.784 46.3361C294.784 46.1108 294.859 45.923 295.009 45.7727C295.169 45.6226 295.367 45.5474 295.602 45.5474C295.828 45.5474 296.021 45.6226 296.181 45.7727C296.341 45.923 296.421 46.1108 296.421 46.3361C296.421 46.5709 296.341 46.7681 296.181 46.9278C296.021 47.0779 295.828 47.1531 295.602 47.1531ZM295.009 55.6886V48.7025H296.196V55.6886H295.009ZM301.029 55.6886C300.389 55.6886 299.886 55.5338 299.518 55.2239C299.151 54.914 298.967 54.3553 298.967 53.5478V49.7025H297.753V48.7025H298.967L299.123 47.0263H300.154V48.7025H302.216V49.7025H300.154V53.5478C300.154 53.9891 300.243 54.2896 300.422 54.4492C300.601 54.5994 300.917 54.6746 301.368 54.6746H302.103V55.6886H301.029ZM303.723 55.6886V45.5474H304.909V49.8997C305.145 49.4677 305.478 49.1344 305.911 48.8997C306.345 48.6555 306.815 48.5334 307.324 48.5334C308.134 48.5334 308.784 48.7869 309.273 49.294C309.763 49.7917 310.008 50.5617 310.008 51.604V55.6886H308.835V51.7308C308.835 50.2753 308.246 49.5476 307.07 49.5476C306.457 49.5476 305.944 49.7682 305.531 50.2095C305.116 50.6415 304.909 51.2613 304.909 52.0688V55.6886H303.723ZM104.457 74.3395C103.619 74.3395 102.923 74.1282 102.367 73.7057C101.812 73.2831 101.487 72.7103 101.393 71.9873H102.607C102.683 72.3535 102.875 72.6728 103.186 72.9451C103.506 73.208 103.934 73.3395 104.472 73.3395C104.97 73.3395 105.338 73.2362 105.573 73.0296C105.808 72.8136 105.926 72.5601 105.926 72.269C105.926 71.8464 105.771 71.5647 105.46 71.4239C105.159 71.283 104.73 71.1563 104.175 71.0436C103.798 70.9684 103.421 70.8605 103.045 70.7196C102.668 70.5788 102.353 70.3816 102.099 70.1281C101.844 69.8652 101.717 69.5224 101.717 69.0998C101.717 68.4895 101.944 67.9918 102.395 67.6069C102.857 67.2124 103.478 67.0153 104.259 67.0153C105.003 67.0153 105.611 67.2031 106.081 67.5787C106.562 67.9449 106.839 68.4708 106.915 69.1562H105.743C105.696 68.7993 105.54 68.5224 105.277 68.3251C105.022 68.1186 104.679 68.0153 104.246 68.0153C103.822 68.0153 103.493 68.1045 103.257 68.2829C103.031 68.4613 102.918 68.696 102.918 68.9872C102.918 69.2689 103.063 69.4895 103.356 69.6492C103.657 69.8088 104.062 69.9449 104.57 70.0577C105.003 70.1515 105.413 70.2689 105.799 70.4098C106.194 70.5412 106.514 70.7432 106.759 71.0154C107.014 71.2783 107.14 71.6634 107.14 72.1704C107.15 72.7995 106.91 73.3207 106.421 73.7339C105.941 74.1376 105.286 74.3395 104.457 74.3395ZM112.027 74.3395C111.369 74.3395 110.775 74.1892 110.248 73.8888C109.72 73.5883 109.302 73.1657 108.991 72.6211C108.689 72.0671 108.539 71.4192 108.539 70.6774C108.539 69.9356 108.694 69.2923 109.005 68.7477C109.315 68.1937 109.735 67.7665 110.262 67.466C110.799 67.1655 111.397 67.0153 112.055 67.0153C112.714 67.0153 113.307 67.1655 113.835 67.466C114.362 67.7665 114.776 68.1937 115.078 68.7477C115.389 69.2923 115.544 69.9356 115.544 70.6774C115.544 71.4192 115.389 72.0671 115.078 72.6211C114.768 73.1657 114.343 73.5883 113.807 73.8888C113.279 74.1892 112.686 74.3395 112.027 74.3395ZM112.027 73.3254C112.433 73.3254 112.809 73.2268 113.157 73.0296C113.505 72.8324 113.788 72.5367 114.005 72.1422C114.221 71.7479 114.33 71.2596 114.33 70.6774C114.33 70.0952 114.221 69.6069 114.005 69.2126C113.797 68.8181 113.52 68.5224 113.171 68.3251C112.823 68.128 112.451 68.0294 112.055 68.0294C111.65 68.0294 111.274 68.128 110.926 68.3251C110.578 68.5224 110.295 68.8181 110.078 69.2126C109.862 69.6069 109.753 70.0952 109.753 70.6774C109.753 71.2596 109.862 71.7479 110.078 72.1422C110.295 72.5367 110.573 72.8324 110.912 73.0296C111.26 73.2268 111.632 73.3254 112.027 73.3254ZM117.193 74.1705V67.1843H118.267L118.352 68.1984C118.577 67.8228 118.879 67.5317 119.255 67.3252C119.632 67.1186 120.056 67.0153 120.526 67.0153C121.082 67.0153 121.558 67.1279 121.953 67.3533C122.358 67.5787 122.669 67.9214 122.885 68.3816C123.13 67.959 123.464 67.6257 123.888 67.3815C124.321 67.1373 124.787 67.0153 125.286 67.0153C126.123 67.0153 126.793 67.2688 127.291 67.7758C127.79 68.2735 128.04 69.0435 128.04 70.0858V74.1705H126.868V70.2126C126.868 69.4895 126.721 68.945 126.43 68.5787C126.138 68.2125 125.719 68.0294 125.173 68.0294C124.608 68.0294 124.138 68.2501 123.76 68.6914C123.394 69.1234 123.21 69.7431 123.21 70.5506V74.1705H122.023V70.2126C122.023 69.4895 121.878 68.945 121.585 68.5787C121.294 68.2125 120.875 68.0294 120.329 68.0294C119.773 68.0294 119.307 68.2501 118.93 68.6914C118.564 69.1234 118.38 69.7431 118.38 70.5506V74.1705H117.193ZM132.976 74.3395C132.308 74.3395 131.714 74.1892 131.197 73.8888C130.679 73.5789 130.27 73.1516 129.968 72.6071C129.677 72.0625 129.53 71.4192 129.53 70.6774C129.53 69.9449 129.677 69.3064 129.968 68.7618C130.26 68.2078 130.665 67.7805 131.183 67.48C131.71 67.1702 132.317 67.0153 133.005 67.0153C133.682 67.0153 134.267 67.1702 134.756 67.48C135.255 67.7805 135.636 68.1796 135.899 68.6773C136.164 69.175 136.295 69.7102 136.295 70.2831C136.295 70.3863 136.29 70.4896 136.281 70.5929C136.281 70.6962 136.281 70.8136 136.281 70.945H130.703C130.731 71.4803 130.853 71.9263 131.069 72.2831C131.296 72.6305 131.574 72.8935 131.903 73.0719C132.242 73.2503 132.6 73.3395 132.976 73.3395C133.466 73.3395 133.876 73.2268 134.205 73.0014C134.535 72.7761 134.775 72.4709 134.925 72.0859H136.097C135.909 72.7338 135.546 73.2737 135.01 73.7057C134.483 74.1282 133.805 74.3395 132.976 74.3395ZM132.976 68.0153C132.412 68.0153 131.907 68.1891 131.465 68.5364C131.032 68.8745 130.783 69.3722 130.716 70.0295H135.123C135.095 69.4003 134.878 68.9073 134.473 68.5505C134.069 68.1937 133.569 68.0153 132.976 68.0153ZM141.605 74.1705V67.1843H142.679L142.763 68.1984C142.989 67.8228 143.29 67.5317 143.667 67.3252C144.043 67.1186 144.468 67.0153 144.938 67.0153C145.494 67.0153 145.969 67.1279 146.365 67.3533C146.77 67.5787 147.081 67.9214 147.297 68.3816C147.542 67.959 147.876 67.6257 148.3 67.3815C148.733 67.1373 149.199 67.0153 149.698 67.0153C150.535 67.0153 151.204 67.2688 151.703 67.7758C152.202 68.2735 152.452 69.0435 152.452 70.0858V74.1705H151.28V70.2126C151.28 69.4895 151.133 68.945 150.842 68.5787C150.55 68.2125 150.131 68.0294 149.584 68.0294C149.02 68.0294 148.549 68.2501 148.172 68.6914C147.805 69.1234 147.622 69.7431 147.622 70.5506V74.1705H146.435V70.2126C146.435 69.4895 146.29 68.945 145.997 68.5787C145.705 68.2125 145.287 68.0294 144.741 68.0294C144.185 68.0294 143.719 68.2501 143.342 68.6914C142.975 69.1234 142.791 69.7431 142.791 70.5506V74.1705H141.605ZM157.388 74.3395C156.72 74.3395 156.126 74.1892 155.608 73.8888C155.091 73.5789 154.682 73.1516 154.38 72.6071C154.088 72.0625 153.942 71.4192 153.942 70.6774C153.942 69.9449 154.088 69.3064 154.38 68.7618C154.672 68.2078 155.077 67.7805 155.594 67.48C156.122 67.1702 156.729 67.0153 157.416 67.0153C158.094 67.0153 158.677 67.1702 159.167 67.48C159.666 67.7805 160.048 68.1796 160.311 68.6773C160.576 69.175 160.707 69.7102 160.707 70.2831C160.707 70.3863 160.702 70.4896 160.693 70.5929C160.693 70.6962 160.693 70.8136 160.693 70.945H155.115C155.143 71.4803 155.265 71.9263 155.481 72.2831C155.708 72.6305 155.986 72.8935 156.314 73.0719C156.654 73.2503 157.012 73.3395 157.388 73.3395C157.878 73.3395 158.287 73.2268 158.617 73.0014C158.947 72.7761 159.187 72.4709 159.337 72.0859H160.509C160.321 72.7338 159.958 73.2737 159.422 73.7057C158.894 74.1282 158.216 74.3395 157.388 74.3395ZM157.388 68.0153C156.823 68.0153 156.319 68.1891 155.877 68.5364C155.444 68.8745 155.195 69.3722 155.128 70.0295H159.535C159.507 69.4003 159.29 68.9073 158.885 68.5505C158.48 68.1937 157.981 68.0153 157.388 68.0153ZM162.279 74.1705V67.1843H163.352L163.437 68.1984C163.663 67.8228 163.965 67.5317 164.341 67.3252C164.718 67.1186 165.142 67.0153 165.612 67.0153C166.168 67.0153 166.643 67.1279 167.039 67.3533C167.444 67.5787 167.754 67.9214 167.971 68.3816C168.215 67.959 168.55 67.6257 168.973 67.3815C169.406 67.1373 169.872 67.0153 170.372 67.0153C171.21 67.0153 171.878 67.2688 172.377 67.7758C172.877 68.2735 173.126 69.0435 173.126 70.0858V74.1705H171.954V70.2126C171.954 69.4895 171.808 68.945 171.516 68.5787C171.224 68.2125 170.805 68.0294 170.259 68.0294C169.694 68.0294 169.223 68.2501 168.846 68.6914C168.48 69.1234 168.295 69.7431 168.295 70.5506V74.1705H167.109V70.2126C167.109 69.4895 166.963 68.945 166.671 68.5787C166.38 68.2125 165.96 68.0294 165.414 68.0294C164.859 68.0294 164.393 68.2501 164.017 68.6914C163.649 69.1234 163.465 69.7431 163.465 70.5506V74.1705H162.279ZM178.104 74.3395C177.445 74.3395 176.852 74.1892 176.325 73.8888C175.798 73.5883 175.379 73.1657 175.068 72.6211C174.767 72.0671 174.617 71.4192 174.617 70.6774C174.617 69.9356 174.772 69.2923 175.082 68.7477C175.393 68.1937 175.812 67.7665 176.339 67.466C176.875 67.1655 177.473 67.0153 178.133 67.0153C178.792 67.0153 179.385 67.1655 179.913 67.466C180.439 67.7665 180.854 68.1937 181.155 68.7477C181.465 69.2923 181.621 69.9356 181.621 70.6774C181.621 71.4192 181.465 72.0671 181.155 72.6211C180.844 73.1657 180.421 73.5883 179.884 73.8888C179.357 74.1892 178.764 74.3395 178.104 74.3395ZM178.104 73.3254C178.509 73.3254 178.886 73.2268 179.235 73.0296C179.583 72.8324 179.865 72.5367 180.081 72.1422C180.298 71.7479 180.406 71.2596 180.406 70.6774C180.406 70.0952 180.298 69.6069 180.081 69.2126C179.875 68.8181 179.597 68.5224 179.248 68.3251C178.9 68.128 178.529 68.0294 178.133 68.0294C177.728 68.0294 177.351 68.128 177.003 68.3251C176.655 68.5224 176.372 68.8181 176.156 69.2126C175.939 69.6069 175.831 70.0952 175.831 70.6774C175.831 71.2596 175.939 71.7479 176.156 72.1422C176.372 72.5367 176.65 72.8324 176.989 73.0296C177.337 73.2268 177.709 73.3254 178.104 73.3254ZM183.271 74.1705V67.1843H184.344L184.443 68.5224C184.66 68.0622 184.989 67.6961 185.431 67.4237C185.874 67.1515 186.42 67.0153 187.07 67.0153V68.2547H186.745C186.33 68.2547 185.949 68.3299 185.601 68.4801C185.253 68.621 184.975 68.8651 184.768 69.2126C184.56 69.5599 184.457 70.0389 184.457 70.6492V74.1705H183.271ZM189.164 77.2692L190.901 73.4944H190.491L187.71 67.1843H188.994L191.311 72.6211L193.768 67.1843H194.996L190.406 77.2692H189.164ZM202.754 74.1705C202.114 74.1705 201.611 74.0156 201.243 73.7057C200.877 73.3958 200.692 72.8371 200.692 72.0296V68.1843H199.478V67.1843H200.692L200.848 65.5081H201.879V67.1843H203.941V68.1843H201.879V72.0296C201.879 72.4709 201.968 72.7714 202.148 72.931C202.326 73.0812 202.642 73.1564 203.094 73.1564H203.828V74.1705H202.754ZM205.448 74.1705V67.1843H206.522L206.62 68.5224C206.837 68.0622 207.167 67.6961 207.608 67.4237C208.051 67.1515 208.597 67.0153 209.247 67.0153V68.2547H208.922C208.508 68.2547 208.126 68.3299 207.778 68.4801C207.43 68.621 207.152 68.8651 206.945 69.2126C206.738 69.5599 206.634 70.0389 206.634 70.6492V74.1705H205.448ZM212.909 74.3395C212.325 74.3395 211.84 74.2409 211.454 74.0437C211.068 73.8465 210.781 73.5836 210.593 73.2549C210.405 72.9263 210.31 72.5694 210.31 72.1845C210.31 71.4708 210.583 70.9215 211.129 70.5365C211.676 70.1515 212.42 69.959 213.361 69.959H215.253V69.8745C215.253 69.2642 215.093 68.8041 214.773 68.4942C214.453 68.175 214.024 68.0153 213.488 68.0153C213.026 68.0153 212.627 68.1326 212.287 68.3675C211.958 68.5928 211.751 68.9261 211.666 69.3675H210.452C210.498 68.8604 210.668 68.4331 210.96 68.0858C211.261 67.7383 211.634 67.4754 212.076 67.297C212.518 67.1091 212.989 67.0153 213.488 67.0153C214.467 67.0153 215.202 67.2782 215.691 67.8041C216.191 68.3205 216.44 69.0106 216.44 69.8745V74.1705H215.381L215.31 72.9169C215.112 73.3113 214.82 73.6494 214.434 73.9311C214.057 74.2033 213.549 74.3395 212.909 74.3395ZM213.093 73.3395C213.544 73.3395 213.931 73.222 214.251 72.9873C214.58 72.7526 214.83 72.4474 215 72.0718C215.168 71.6962 215.253 71.3018 215.253 70.8887V70.8746H213.46C212.763 70.8746 212.269 70.9966 211.977 71.2408C211.694 71.4755 211.553 71.7713 211.553 72.1281C211.553 72.4944 211.685 72.7902 211.949 73.0155C212.222 73.2315 212.603 73.3395 213.093 73.3395ZM218.94 65.635C218.704 65.635 218.507 65.5598 218.347 65.4096C218.196 65.25 218.121 65.0527 218.121 64.818C218.121 64.5926 218.196 64.4049 218.347 64.2546C218.507 64.1044 218.704 64.0292 218.94 64.0292C219.165 64.0292 219.358 64.1044 219.518 64.2546C219.679 64.4049 219.759 64.5926 219.759 64.818C219.759 65.0527 219.679 65.25 219.518 65.4096C219.358 65.5598 219.165 65.635 218.94 65.635ZM218.347 74.1705V67.1843H219.533V74.1705H218.347ZM221.599 74.1705V67.1843H222.672L222.743 68.4379C222.968 67.9966 223.293 67.6491 223.717 67.3956C224.141 67.142 224.62 67.0153 225.158 67.0153C225.986 67.0153 226.645 67.2688 227.135 67.7758C227.634 68.2735 227.883 69.0435 227.883 70.0858V74.1705H226.697V70.2126C226.697 68.7571 226.094 68.0294 224.89 68.0294C224.287 68.0294 223.783 68.2501 223.378 68.6914C222.983 69.1234 222.785 69.7431 222.785 70.5506V74.1705H221.599ZM230.401 65.635C230.165 65.635 229.968 65.5598 229.807 65.4096C229.657 65.25 229.582 65.0527 229.582 64.818C229.582 64.5926 229.657 64.4049 229.807 64.2546C229.968 64.1044 230.165 64.0292 230.401 64.0292C230.627 64.0292 230.82 64.1044 230.98 64.2546C231.14 64.4049 231.22 64.5926 231.22 64.818C231.22 65.0527 231.14 65.25 230.98 65.4096C230.82 65.5598 230.627 65.635 230.401 65.635ZM229.807 74.1705V67.1843H230.994V74.1705H229.807ZM233.06 74.1705V67.1843H234.133L234.203 68.4379C234.429 67.9966 234.754 67.6491 235.178 67.3956C235.602 67.142 236.082 67.0153 236.619 67.0153C237.447 67.0153 238.106 67.2688 238.596 67.7758C239.094 68.2735 239.344 69.0435 239.344 70.0858V74.1705H238.158V70.2126C238.158 68.7571 237.555 68.0294 236.35 68.0294C235.748 68.0294 235.244 68.2501 234.839 68.6914C234.444 69.1234 234.246 69.7431 234.246 70.5506V74.1705H233.06ZM243.91 71.9733C243.515 71.9733 243.152 71.9216 242.822 71.8183L242.116 72.4802C242.219 72.5554 242.347 72.6211 242.497 72.6775C242.657 72.7244 242.884 72.7714 243.175 72.8184C243.467 72.8559 243.877 72.8981 244.404 72.9451C245.345 73.0108 246.018 73.2268 246.424 73.5931C246.829 73.9592 247.031 74.4382 247.031 75.0297C247.031 75.4335 246.918 75.8185 246.692 76.1847C246.476 76.5509 246.136 76.8514 245.675 77.0861C245.224 77.3208 244.639 77.4382 243.924 77.4382C243.293 77.4382 242.732 77.3537 242.243 77.1847C241.753 77.025 241.372 76.7762 241.1 76.4382C240.827 76.1095 240.69 75.6917 240.69 75.1846C240.69 74.9217 240.76 74.6353 240.902 74.3254C241.043 74.0249 241.307 73.7386 241.693 73.4662C241.485 73.3818 241.307 73.2925 241.155 73.1986C241.015 73.0953 240.883 72.9827 240.76 72.8606V72.5367L241.961 71.3534C241.405 70.884 241.128 70.2642 241.128 69.4943C241.128 69.0342 241.236 68.6163 241.453 68.2407C241.669 67.865 241.984 67.5692 242.399 67.3533C242.812 67.1279 243.317 67.0153 243.91 67.0153C244.314 67.0153 244.682 67.0716 245.012 67.1843H247.596V68.0717L246.283 68.128C246.556 68.5224 246.692 68.9778 246.692 69.4943C246.692 69.9544 246.579 70.3722 246.353 70.7478C246.136 71.1234 245.821 71.4239 245.407 71.6492C245.002 71.8652 244.503 71.9733 243.91 71.9733ZM243.91 71.0013C244.409 71.0013 244.804 70.8746 245.096 70.6211C245.397 70.3581 245.548 69.9825 245.548 69.4943C245.548 69.0154 245.397 68.6492 245.096 68.3956C244.804 68.1326 244.409 68.0012 243.91 68.0012C243.402 68.0012 242.997 68.1326 242.695 68.3956C242.404 68.6492 242.258 69.0154 242.258 69.4943C242.258 69.9825 242.404 70.3581 242.695 70.6211C242.997 70.8746 243.402 71.0013 243.91 71.0013ZM241.848 75.072C241.848 75.5414 242.046 75.8889 242.441 76.1143C242.837 76.349 243.33 76.4664 243.924 76.4664C244.508 76.4664 244.974 76.3396 245.322 76.0861C245.68 75.8326 245.858 75.4945 245.858 75.072C245.858 74.7714 245.737 74.5086 245.492 74.2832C245.247 74.0672 244.794 73.9404 244.136 73.9029C243.618 73.8653 243.17 73.8183 242.794 73.762C242.408 73.9686 242.154 74.1892 242.031 74.424C241.909 74.6682 241.848 74.8842 241.848 75.072ZM252.926 71.438L252.784 64.3109H254.07L253.928 71.438H252.926ZM253.462 74.2409C253.227 74.2409 253.029 74.1658 252.869 74.0156C252.719 73.8559 252.644 73.6635 252.644 73.4381C252.644 73.2127 252.719 73.0249 252.869 72.8747C253.029 72.7151 253.227 72.6352 253.462 72.6352C253.689 72.6352 253.877 72.7151 254.028 72.8747C254.188 73.0249 254.268 73.2127 254.268 73.4381C254.268 73.6635 254.188 73.8559 254.028 74.0156C253.877 74.1658 253.689 74.2409 253.462 74.2409Z" fill="black"/>
<path d="M73.4589 115.352C72.057 115.352 70.8372 115.098 69.7994 114.589C68.7616 114.08 67.9606 113.372 67.3962 112.465C66.8317 111.557 66.5496 110.504 66.5496 109.305H68.9528C68.9528 110.049 69.1257 110.74 69.4717 111.375C69.8176 111.993 70.3183 112.492 70.9737 112.873C71.6474 113.236 72.4757 113.418 73.4589 113.418C74.7515 113.418 75.7529 113.11 76.4629 112.492C77.173 111.874 77.528 111.103 77.528 110.177C77.528 109.414 77.3642 108.806 77.0364 108.352C76.7087 107.88 76.2627 107.499 75.6983 107.208C75.1521 106.917 74.5149 106.663 73.7866 106.446C73.0765 106.228 72.3301 105.983 71.5472 105.71C70.0725 105.201 68.9801 104.575 68.2701 103.831C67.56 103.068 67.205 102.079 67.205 100.862C67.1867 99.8456 67.4235 98.9468 67.915 98.1657C68.4066 97.3671 69.0984 96.7494 69.9906 96.3136C70.9009 95.8597 71.9751 95.6327 73.2131 95.6327C74.433 95.6327 75.4889 95.8597 76.381 96.3136C77.2913 96.7676 77.9923 97.3943 78.4838 98.1929C78.9937 98.9915 79.2576 99.9 79.2758 100.917H76.8726C76.8726 100.39 76.736 99.8728 76.4629 99.3641C76.1898 98.8378 75.7711 98.4108 75.2067 98.084C74.6605 97.7571 73.9687 97.5937 73.1312 97.5937C72.0934 97.5752 71.2377 97.8388 70.5641 98.3836C69.9086 98.9283 69.5809 99.6822 69.5809 100.644C69.5809 101.461 69.8085 102.088 70.2637 102.523C70.737 102.959 71.3924 103.322 72.23 103.613C73.0675 103.885 74.0324 104.203 75.1248 104.566C76.0351 104.893 76.8543 105.274 77.5826 105.71C78.3109 106.146 78.8753 106.709 79.2758 107.399C79.6945 108.088 79.9039 108.97 79.9039 110.041C79.9039 110.948 79.6672 111.811 79.1939 112.628C78.7206 113.427 78.0013 114.08 77.0364 114.589C76.0897 115.098 74.8972 115.352 73.4589 115.352ZM88.6464 115.352C87.3719 115.352 86.2249 115.061 85.2054 114.48C84.1859 113.9 83.3757 113.082 82.7749 112.029C82.1923 110.958 81.901 109.705 81.901 108.27C81.901 106.836 82.2014 105.592 82.8022 104.539C83.403 103.468 84.2132 102.641 85.2327 102.06C86.2705 101.48 87.4266 101.189 88.701 101.189C89.9755 101.189 91.1225 101.48 92.142 102.06C93.1616 102.641 93.9627 103.468 94.5453 104.539C95.1461 105.592 95.4465 106.836 95.4465 108.27C95.4465 109.705 95.1461 110.958 94.5453 112.029C93.9445 113.082 93.1252 113.9 92.0874 114.48C91.0679 115.061 89.9209 115.352 88.6464 115.352ZM88.6464 113.391C89.4293 113.391 90.1575 113.2 90.8312 112.819C91.5049 112.438 92.0511 111.866 92.4698 111.103C92.8885 110.34 93.0979 109.396 93.0979 108.27C93.0979 107.145 92.8885 106.2 92.4698 105.438C92.0692 104.675 91.5322 104.103 90.8585 103.722C90.1848 103.341 89.4657 103.15 88.701 103.15C87.9181 103.15 87.1899 103.341 86.5163 103.722C85.8426 104.103 85.2964 104.675 84.8777 105.438C84.459 106.2 84.2496 107.145 84.2496 108.27C84.2496 109.396 84.459 110.34 84.8777 111.103C85.2964 111.866 85.8335 112.438 86.489 112.819C87.1626 113.2 87.8818 113.391 88.6464 113.391ZM98.0902 121.017V101.516H100.166L100.384 103.749C100.821 103.095 101.439 102.505 102.241 101.979C103.061 101.453 104.098 101.189 105.355 101.189C106.701 101.189 107.876 101.497 108.877 102.115C109.878 102.733 110.653 103.577 111.199 104.648C111.763 105.719 112.045 106.936 112.045 108.298C112.045 109.659 111.763 110.876 111.199 111.947C110.653 113.001 109.869 113.835 108.85 114.453C107.848 115.052 106.674 115.352 105.327 115.352C104.216 115.352 103.224 115.125 102.35 114.671C101.494 114.217 100.839 113.581 100.384 112.764V121.017H98.0902ZM105.081 113.364C105.991 113.364 106.792 113.154 107.485 112.737C108.176 112.301 108.722 111.702 109.123 110.94C109.523 110.177 109.724 109.287 109.724 108.27C109.724 107.254 109.523 106.364 109.123 105.601C108.722 104.839 108.176 104.248 107.485 103.831C106.792 103.395 105.991 103.177 105.081 103.177C104.17 103.177 103.37 103.395 102.678 103.831C101.986 104.248 101.44 104.839 101.04 105.601C100.639 106.364 100.439 107.254 100.439 108.27C100.439 109.287 100.639 110.177 101.04 110.94C101.44 111.702 101.986 112.301 102.678 112.737C103.37 113.154 104.17 113.364 105.081 113.364ZM114.692 115.025V95.4148H116.986V103.831C117.442 102.995 118.088 102.351 118.925 101.897C119.763 101.425 120.673 101.189 121.656 101.189C123.222 101.189 124.478 101.679 125.425 102.66C126.372 103.622 126.845 105.111 126.845 107.126V115.025H124.579V107.372C124.579 104.557 123.44 103.15 121.165 103.15C119.982 103.15 118.989 103.577 118.188 104.43C117.387 105.266 116.986 106.464 116.986 108.025V115.025H114.692ZM131.167 98.5197C130.712 98.5197 130.33 98.3748 130.02 98.084C129.729 97.7756 129.583 97.3943 129.583 96.94C129.583 96.5043 129.729 96.1411 130.02 95.8506C130.33 95.5601 130.712 95.4148 131.167 95.4148C131.604 95.4148 131.977 95.5601 132.287 95.8506C132.597 96.1411 132.751 96.5043 132.751 96.94C132.751 97.3943 132.597 97.7756 132.287 98.084C131.977 98.3748 131.604 98.5197 131.167 98.5197ZM130.02 115.025V101.516H132.314V115.025H130.02ZM140.268 115.352C139.139 115.352 138.202 115.161 137.455 114.78C136.709 114.399 136.154 113.89 135.789 113.255C135.425 112.619 135.243 111.929 135.243 111.185C135.243 109.804 135.772 108.742 136.827 107.998C137.883 107.254 139.322 106.881 141.142 106.881H144.801V106.718C144.801 105.538 144.492 104.648 143.873 104.049C143.254 103.431 142.425 103.123 141.388 103.123C140.496 103.123 139.722 103.349 139.066 103.804C138.429 104.239 138.029 104.884 137.865 105.737H135.516C135.608 104.757 135.935 103.931 136.499 103.259C137.082 102.587 137.801 102.079 138.657 101.734C139.513 101.371 140.423 101.189 141.388 101.189C143.282 101.189 144.702 101.698 145.648 102.714C146.613 103.713 147.095 105.048 147.095 106.718V115.025H145.047L144.911 112.601C144.528 113.364 143.964 114.017 143.217 114.562C142.49 115.088 141.507 115.352 140.268 115.352ZM140.623 113.418C141.497 113.418 142.244 113.191 142.862 112.737C143.5 112.283 143.982 111.693 144.31 110.967C144.637 110.24 144.801 109.478 144.801 108.679V108.652H141.333C139.986 108.652 139.03 108.888 138.465 109.36C137.919 109.814 137.646 110.386 137.646 111.076C137.646 111.784 137.902 112.356 138.411 112.792C138.939 113.209 139.677 113.418 140.623 113.418ZM162.899 115.352C161.497 115.352 160.277 115.098 159.239 114.589C158.201 114.08 157.401 113.372 156.836 112.465C156.271 111.557 155.989 110.504 155.989 109.305H158.393C158.393 110.049 158.565 110.74 158.912 111.375C159.258 111.993 159.758 112.492 160.414 112.873C161.088 113.236 161.916 113.418 162.899 113.418C164.191 113.418 165.193 113.11 165.903 112.492C166.613 111.874 166.968 111.103 166.968 110.177C166.968 109.414 166.804 108.806 166.476 108.352C166.149 107.88 165.703 107.499 165.138 107.208C164.592 106.917 163.955 106.663 163.226 106.446C162.516 106.228 161.77 105.983 160.987 105.71C159.512 105.201 158.42 104.575 157.71 103.831C157 103.068 156.645 102.079 156.645 100.862C156.626 99.8456 156.863 98.9468 157.355 98.1657C157.846 97.3671 158.538 96.7494 159.43 96.3136C160.34 95.8597 161.415 95.6327 162.653 95.6327C163.873 95.6327 164.928 95.8597 165.821 96.3136C166.731 96.7676 167.432 97.3943 167.924 98.1929C168.434 98.9915 168.697 99.9 168.716 100.917H166.312C166.312 100.39 166.176 99.8728 165.903 99.3641C165.63 98.8378 165.211 98.4108 164.647 98.084C164.1 97.7571 163.409 97.5937 162.571 97.5937C161.533 97.5752 160.678 97.8388 160.004 98.3836C159.349 98.9283 159.021 99.6822 159.021 100.644C159.021 101.461 159.248 102.088 159.704 102.523C160.177 102.959 160.832 103.322 161.67 103.613C162.508 103.885 163.472 104.203 164.565 104.566C165.475 104.893 166.294 105.274 167.022 105.71C167.751 106.146 168.315 106.709 168.716 107.399C169.134 108.088 169.344 108.97 169.344 110.041C169.344 110.948 169.107 111.811 168.634 112.628C168.161 113.427 167.441 114.08 166.476 114.589C165.529 115.098 164.337 115.352 162.899 115.352ZM176.858 115.352C175.255 115.352 173.981 114.87 173.035 113.908C172.087 112.928 171.614 111.43 171.614 109.414V101.516H173.908V109.169C173.908 111.983 175.064 113.391 177.377 113.391C178.56 113.391 179.534 112.974 180.299 112.138C181.081 111.285 181.473 110.077 181.473 108.515V101.516H183.767V115.025H181.692L181.528 112.601C181.108 113.454 180.48 114.126 179.643 114.616C178.824 115.107 177.896 115.352 176.858 115.352ZM192.349 115.025C191.112 115.025 190.137 114.725 189.427 114.126C188.717 113.527 188.362 112.446 188.362 110.885V103.45H186.013V101.516H188.362L188.662 98.2746H190.656V101.516H194.643V103.45H190.656V110.885C190.656 111.738 190.829 112.32 191.175 112.628C191.521 112.919 192.131 113.064 193.005 113.064H194.425V115.025H192.349ZM197.011 115.025V95.4148H199.305V103.831C199.761 102.995 200.407 102.351 201.244 101.897C202.082 101.425 202.992 101.189 203.975 101.189C205.541 101.189 206.797 101.679 207.744 102.66C208.691 103.622 209.164 105.111 209.164 107.126V115.025H206.897V107.372C206.897 104.557 205.759 103.15 203.484 103.15C202.301 103.15 201.308 103.577 200.507 104.43C199.706 105.266 199.305 106.464 199.305 108.025V115.025H197.011ZM218.184 115.352C216.891 115.352 215.744 115.061 214.743 114.48C213.741 113.881 212.949 113.055 212.367 112.002C211.802 110.948 211.521 109.705 211.521 108.27C211.521 106.854 211.802 105.62 212.367 104.566C212.931 103.495 213.714 102.668 214.716 102.088C215.735 101.489 216.909 101.189 218.239 101.189C219.55 101.189 220.678 101.489 221.625 102.088C222.59 102.668 223.327 103.441 223.837 104.403C224.346 105.365 224.602 106.4 224.602 107.508C224.602 107.707 224.592 107.908 224.575 108.107C224.575 108.306 224.575 108.534 224.575 108.788H213.787C213.842 109.823 214.078 110.686 214.497 111.375C214.934 112.047 215.471 112.555 216.109 112.901C216.764 113.246 217.455 113.418 218.184 113.418C219.13 113.418 219.922 113.2 220.56 112.764C221.197 112.329 221.661 111.738 221.953 110.994H224.22C223.855 112.247 223.154 113.291 222.117 114.126C221.096 114.943 219.786 115.352 218.184 115.352ZM218.184 103.123C217.092 103.123 216.117 103.458 215.262 104.13C214.424 104.784 213.941 105.746 213.815 107.017H222.335C222.281 105.801 221.861 104.847 221.079 104.158C220.296 103.468 219.331 103.123 218.184 103.123ZM227.096 115.025V101.516H229.171L229.362 104.103C229.781 103.213 230.419 102.505 231.274 101.979C232.13 101.453 233.186 101.189 234.442 101.189V103.586H233.814C233.013 103.586 232.276 103.731 231.602 104.021C230.928 104.294 230.391 104.766 229.991 105.438C229.59 106.11 229.39 107.036 229.39 108.216V115.025H227.096ZM236.471 115.025V95.4148H238.765V115.025H236.471ZM246.485 115.352C245.356 115.352 244.418 115.161 243.672 114.78C242.926 114.399 242.37 113.89 242.006 113.255C241.642 112.619 241.46 111.929 241.46 111.185C241.46 109.804 241.987 108.742 243.044 107.998C244.1 107.254 245.538 106.881 247.359 106.881H251.018V106.718C251.018 105.538 250.709 104.648 250.089 104.049C249.47 103.431 248.642 103.123 247.604 103.123C246.712 103.123 245.938 103.349 245.283 103.804C244.646 104.239 244.245 104.884 244.081 105.737H241.733C241.823 104.757 242.151 103.931 242.716 103.259C243.298 102.587 244.018 102.079 244.873 101.734C245.729 101.371 246.64 101.189 247.604 101.189C249.497 101.189 250.918 101.698 251.865 102.714C252.829 103.713 253.312 105.048 253.312 106.718V115.025H251.264L251.127 112.601C250.745 113.364 250.18 114.017 249.434 114.562C248.705 115.088 247.722 115.352 246.485 115.352ZM246.84 113.418C247.714 113.418 248.46 113.191 249.079 112.737C249.716 112.283 250.199 111.693 250.526 110.967C250.854 110.24 251.018 109.478 251.018 108.679V108.652H247.55C246.203 108.652 245.247 108.888 244.682 109.36C244.136 109.814 243.863 110.386 243.863 111.076C243.863 111.784 244.117 112.356 244.628 112.792C245.155 113.209 245.893 113.418 246.84 113.418ZM256.207 115.025V101.516H258.282L258.419 103.94C258.856 103.087 259.484 102.415 260.303 101.924C261.123 101.434 262.051 101.189 263.089 101.189C264.691 101.189 265.966 101.679 266.912 102.66C267.878 103.622 268.36 105.111 268.36 107.126V115.025H266.066V107.372C266.066 104.557 264.901 103.15 262.57 103.15C261.405 103.15 260.431 103.577 259.648 104.43C258.883 105.266 258.501 106.464 258.501 108.025V115.025H256.207ZM277.434 115.352C276.086 115.352 274.903 115.043 273.884 114.426C272.882 113.808 272.099 112.964 271.535 111.893C270.989 110.822 270.716 109.605 270.716 108.243C270.716 106.881 270.998 105.674 271.563 104.621C272.126 103.55 272.91 102.714 273.911 102.115C274.912 101.497 276.096 101.189 277.462 101.189C278.571 101.189 279.555 101.416 280.411 101.87C281.266 102.324 281.931 102.959 282.405 103.776V95.4148H284.699V115.025H282.623L282.405 112.792C281.968 113.445 281.339 114.036 280.52 114.562C279.701 115.088 278.672 115.352 277.434 115.352ZM277.68 113.364C278.59 113.364 279.391 113.154 280.083 112.737C280.793 112.301 281.339 111.702 281.722 110.94C282.122 110.177 282.323 109.287 282.323 108.27C282.323 107.254 282.122 106.364 281.722 105.601C281.339 104.839 280.793 104.248 280.083 103.831C279.391 103.395 278.59 103.177 277.68 103.177C276.788 103.177 275.987 103.395 275.277 103.831C274.584 104.248 274.038 104.839 273.638 105.601C273.256 106.364 273.065 107.254 273.065 108.27C273.065 109.287 273.256 110.177 273.638 110.94C274.038 111.702 274.584 112.301 275.277 112.737C275.987 113.154 276.788 113.364 277.68 113.364Z" fill="black"/>
<path d="M117.723 148.668L108.896 147.389L104.95 139.41C104.842 139.191 104.665 139.015 104.446 138.907C103.896 138.637 103.229 138.863 102.954 139.41L99.008 147.389L90.1814 148.668C89.9381 148.703 89.7156 148.817 89.5452 148.99C89.3393 149.202 89.2258 149.485 89.2297 149.78C89.2337 150.074 89.3546 150.355 89.5661 150.561L95.9525 156.771L94.4437 165.54C94.4084 165.743 94.431 165.953 94.509 166.145C94.5871 166.336 94.7175 166.503 94.8855 166.624C95.0535 166.746 95.2521 166.819 95.4592 166.833C95.6663 166.848 95.8733 166.804 96.0568 166.708L103.952 162.568L111.847 166.708C112.063 166.822 112.314 166.861 112.554 166.819C113.158 166.715 113.565 166.143 113.461 165.54L111.952 156.771L118.338 150.561C118.512 150.391 118.627 150.169 118.661 149.926C118.756 149.319 118.331 148.758 117.723 148.668Z" fill="#FDA202"/>
<path d="M154.747 148.668L145.92 147.389L141.974 139.41C141.866 139.191 141.689 139.015 141.47 138.907C140.92 138.637 140.253 138.863 139.978 139.41L136.032 147.389L127.205 148.668C126.962 148.703 126.74 148.817 126.569 148.99C126.363 149.202 126.249 149.485 126.253 149.78C126.258 150.074 126.379 150.355 126.59 150.561L132.976 156.771L131.467 165.54C131.432 165.743 131.455 165.953 131.533 166.145C131.611 166.336 131.741 166.503 131.909 166.624C132.077 166.746 132.276 166.819 132.483 166.833C132.69 166.848 132.897 166.804 133.081 166.708L140.976 162.568L148.871 166.708C149.087 166.822 149.338 166.861 149.577 166.819C150.182 166.715 150.589 166.143 150.485 165.54L148.976 156.771L155.362 150.561C155.536 150.391 155.651 150.169 155.685 149.926C155.779 149.319 155.355 148.758 154.747 148.668Z" fill="#FDA202"/>
<path d="M191.771 148.668L182.944 147.389L178.998 139.41C178.89 139.191 178.713 139.015 178.494 138.907C177.944 138.637 177.277 138.863 177.002 139.41L173.056 147.389L164.229 148.668C163.986 148.703 163.764 148.817 163.593 148.99C163.387 149.202 163.273 149.485 163.277 149.78C163.281 150.074 163.402 150.355 163.614 150.561L170 156.771L168.491 165.54C168.456 165.743 168.479 165.953 168.557 166.145C168.635 166.336 168.765 166.503 168.933 166.624C169.101 166.746 169.3 166.819 169.507 166.833C169.714 166.848 169.921 166.804 170.105 166.708L178 162.568L185.895 166.708C186.111 166.822 186.361 166.861 186.601 166.819C187.206 166.715 187.613 166.143 187.509 165.54L186 156.771L192.386 150.561C192.56 150.391 192.674 150.169 192.709 149.926C192.803 149.319 192.379 148.758 191.771 148.668Z" fill="#FDA202"/>
<path d="M228.795 148.668L219.967 147.389L216.022 139.41C215.914 139.191 215.737 139.015 215.518 138.907C214.968 138.637 214.3 138.863 214.026 139.41L210.08 147.389L201.253 148.668C201.01 148.703 200.787 148.817 200.617 148.99C200.411 149.202 200.297 149.485 200.301 149.78C200.305 150.074 200.426 150.355 200.638 150.561L207.024 156.771L205.515 165.54C205.48 165.743 205.503 165.953 205.581 166.145C205.659 166.336 205.789 166.503 205.957 166.624C206.125 166.746 206.324 166.819 206.531 166.833C206.738 166.848 206.945 166.804 207.129 166.708L215.024 162.568L222.919 166.708C223.135 166.822 223.385 166.861 223.625 166.819C224.23 166.715 224.637 166.143 224.533 165.54L223.024 156.771L229.41 150.561C229.584 150.391 229.698 150.169 229.733 149.926C229.827 149.319 229.402 148.758 228.795 148.668Z" fill="#FDA202"/>
<path d="M265.819 148.668L256.991 147.389L253.046 139.41C252.937 139.191 252.76 139.015 252.541 138.907C251.992 138.637 251.324 138.863 251.05 139.41L247.104 147.389L238.277 148.668C238.034 148.703 237.811 148.817 237.641 148.99C237.435 149.202 237.321 149.485 237.325 149.78C237.329 150.074 237.45 150.355 237.662 150.561L244.048 156.771L242.539 165.54C242.504 165.743 242.527 165.953 242.605 166.145C242.683 166.336 242.813 166.503 242.981 166.624C243.149 166.746 243.348 166.819 243.555 166.833C243.761 166.848 243.969 166.804 244.153 166.708L252.048 162.568L259.943 166.708C260.159 166.822 260.409 166.861 260.649 166.819C261.253 166.715 261.66 166.143 261.557 165.54L260.048 156.771L266.433 150.561C266.608 150.391 266.722 150.169 266.757 149.926C266.851 149.319 266.426 148.758 265.819 148.668Z" fill="#FDA202"/>
</svg>
