<svg width="275" height="189" viewBox="0 0 275 189" fill="none" xmlns="http://www.w3.org/2000/svg">
<path d="M228.118 65.8033C228.131 70.5233 231.968 74.3411 236.689 74.3288C241.41 74.3165 245.227 70.4788 245.215 65.7587C245.203 61.0373 241.366 57.2196 236.644 57.2319C231.923 57.2442 228.106 61.0819 228.118 65.8033Z" fill="#F1B25E"/>
<path d="M256.686 94.2222C256.698 98.9436 260.536 102.76 265.257 102.748C269.978 102.735 273.795 98.899 273.783 94.1776C273.771 89.4563 269.933 85.6385 265.212 85.6508C260.491 85.6631 256.674 89.5008 256.686 94.2222Z" fill="#F1B25E"/>
<path d="M228.267 122.79C228.279 127.511 232.116 131.329 236.838 131.317C241.559 131.304 245.376 127.467 245.364 122.745C245.351 118.024 241.514 114.207 236.793 114.22C232.072 114.232 228.255 118.068 228.267 122.79Z" fill="#F1B25E"/>
<path d="M256.835 151.209C256.847 155.93 260.684 159.748 265.405 159.735C270.126 159.723 273.944 155.885 273.931 151.164C273.919 146.443 270.082 142.626 265.361 142.639C260.64 142.651 256.822 146.487 256.835 151.209Z" fill="#F1B25E"/>
<path d="M228.416 179.778C228.428 184.498 232.265 188.315 236.986 188.303C241.707 188.291 245.525 184.453 245.512 179.733C245.5 175.012 241.663 171.194 236.942 171.206C232.22 171.218 228.403 175.056 228.416 179.778Z" fill="#F1B25E"/>
<path d="M170.983 8.96448C170.995 13.6856 174.833 17.5028 179.553 17.4905C184.274 17.4782 188.092 13.641 188.08 8.9199C188.067 4.19867 184.23 0.381441 179.508 0.393752C174.788 0.406059 170.97 4.24325 170.983 8.96448Z" fill="#F1B25E"/>
<path d="M199.55 37.3835C199.563 42.1048 203.4 45.9221 208.121 45.9098C212.842 45.8975 216.66 42.0602 216.647 37.339C216.635 32.6179 212.798 28.8006 208.077 28.8129C203.356 28.8252 199.538 32.6624 199.55 37.3835Z" fill="#F1B25E"/>
<path d="M171.131 65.9519C171.144 70.672 174.981 74.4898 179.701 74.4775C184.423 74.4652 188.241 70.6275 188.228 65.9074C188.216 61.186 184.378 57.3683 179.657 57.3806C174.937 57.3929 171.119 61.2306 171.131 65.9519Z" fill="#F1B25E"/>
<path d="M199.699 94.3708C199.711 99.0921 203.549 102.909 208.27 102.896C212.991 102.884 216.808 99.0475 216.796 94.3262C216.784 89.6048 212.946 85.7871 208.225 85.7994C203.504 85.8117 199.687 89.6494 199.699 94.3708Z" fill="#F1B25E"/>
<path d="M171.28 122.938C171.292 127.66 175.13 131.477 179.85 131.465C184.571 131.453 188.389 127.615 188.377 122.894C188.365 118.172 184.527 114.356 179.806 114.368C175.085 114.381 171.268 118.217 171.28 122.938Z" fill="#F1B25E"/>
<path d="M199.847 151.357C199.86 156.079 203.697 159.896 208.418 159.884C213.139 159.872 216.957 156.034 216.944 151.313C216.932 146.591 213.095 142.775 208.374 142.787C203.653 142.799 199.835 146.636 199.847 151.357Z" fill="#F1B25E"/>
<path d="M171.429 179.926C171.441 184.646 175.279 188.464 179.999 188.451C184.72 188.439 188.538 184.601 188.525 179.881C188.513 175.16 184.675 171.342 179.954 171.355C175.234 171.367 171.416 175.205 171.429 179.926Z" fill="#F1B25E"/>
<path d="M142.564 37.5322C142.576 42.2535 146.413 46.0708 151.134 46.0585C155.855 46.0462 159.673 42.2089 159.661 37.4876C159.648 32.7665 155.811 28.9493 151.089 28.9616C146.368 28.9739 142.552 32.8111 142.564 37.5322Z" fill="#F1B25E"/>
<path d="M114.144 66.1005C114.156 70.8206 117.994 74.6383 122.715 74.626C127.436 74.6137 131.253 70.776 131.241 66.0559C131.228 61.3346 127.392 57.5168 122.671 57.5291C117.949 57.5414 114.131 61.3791 114.144 66.1005Z" fill="#F1B25E"/>
<path d="M142.713 94.5194C142.725 99.2408 146.561 103.057 151.283 103.045C156.004 103.033 159.822 99.1962 159.809 94.4749C159.797 89.7535 155.959 85.9358 151.238 85.9481C146.517 85.9604 142.7 89.7981 142.713 94.5194Z" fill="#F1B25E"/>
<path d="M114.292 123.087C114.305 127.808 118.142 131.626 122.864 131.614C127.585 131.601 131.401 127.764 131.389 123.042C131.377 118.321 127.54 114.504 122.819 114.517C118.098 114.529 114.28 118.366 114.292 123.087Z" fill="#F1B25E"/>
<path d="M142.861 151.506C142.873 156.227 146.71 160.045 151.431 160.032C156.153 160.02 159.97 156.182 159.958 151.461C159.946 146.74 156.108 142.923 151.387 142.936C146.665 142.948 142.849 146.784 142.861 151.506Z" fill="#F1B25E"/>
<path d="M114.441 180.075C114.453 184.795 118.291 188.612 123.012 188.6C127.734 188.588 131.55 184.75 131.538 180.03C131.525 175.309 127.689 171.491 122.968 171.503C118.246 171.516 114.429 175.353 114.441 180.075Z" fill="#F1B25E"/>
<path d="M85.7248 94.668C85.7371 99.3894 89.5748 103.206 94.2962 103.194C99.0175 103.181 102.834 99.3448 102.822 94.6234C102.809 89.9021 98.9729 86.0843 94.2516 86.0966C89.5302 86.1089 85.7125 89.9466 85.7248 94.668Z" fill="#F1B25E"/>
<path d="M57.3059 123.236C57.3182 127.957 61.1559 131.775 65.876 131.762C70.5973 131.75 74.4151 127.912 74.4028 123.191C74.3905 118.47 70.5528 114.653 65.8314 114.665C61.1113 114.678 57.2936 118.514 57.3059 123.236Z" fill="#F1B25E"/>
<path d="M85.8734 151.654C85.8857 156.376 89.7234 160.193 94.4448 160.181C99.1661 160.169 102.983 156.331 102.97 151.61C102.958 146.888 99.1216 143.072 94.4002 143.084C89.6788 143.097 85.8611 146.933 85.8734 151.654Z" fill="#F1B25E"/>
<path d="M57.4545 180.223C57.4668 184.943 61.3045 188.761 66.0245 188.749C70.7459 188.736 74.5637 184.899 74.5513 180.178C74.539 175.457 70.7013 171.639 65.98 171.652C61.2599 171.664 57.4422 175.502 57.4545 180.223Z" fill="#F1B25E"/>
<path d="M28.887 151.803C28.8993 156.524 32.7357 160.342 37.4571 160.33C42.1784 160.317 45.9962 156.48 45.9839 151.758C45.9716 147.037 42.1339 143.221 37.4125 143.233C32.6911 143.245 28.8747 147.082 28.887 151.803Z" fill="#F1B25E"/>
<path d="M0.468075 180.372C0.480383 185.092 4.31681 188.91 9.03817 188.897C13.7595 188.885 17.576 185.047 17.5637 180.327C17.5514 175.606 13.715 171.788 8.99359 171.8C4.27223 171.813 0.455764 175.65 0.468075 180.372Z" fill="#F1B25E"/>
</svg>
