<svg width="211" height="287" viewBox="0 0 211 287" fill="none" xmlns="http://www.w3.org/2000/svg">
<g clip-path="url(#clip0_3_10)">
<path d="M47.641 250.213C43.948 250.233 40.9702 253.243 40.9902 256.936C41.0101 260.629 44.0202 263.606 47.7132 263.586C51.4061 263.566 54.3829 260.556 54.363 256.864C54.343 253.171 51.3339 250.193 47.641 250.213Z" fill="#F2E8C3"/>
<path d="M25.4736 272.622C21.7806 272.641 18.8028 275.651 18.8227 279.344C18.8427 283.037 21.8528 286.014 25.5457 285.994C29.2387 285.974 32.2155 282.965 32.1955 279.272C32.1756 275.579 29.1665 272.602 25.4736 272.622Z" fill="#F2E8C3"/>
<path d="M3.06458 250.454C-0.627362 250.474 -3.60515 253.484 -3.58522 257.176C-3.56529 260.869 -0.555191 263.847 3.13675 263.827C6.8297 263.807 9.80751 260.797 9.78758 257.104C9.76765 253.411 6.75753 250.434 3.06458 250.454Z" fill="#F2E8C3"/>
<path d="M91.9757 205.397C88.2838 205.417 85.306 208.427 85.3259 212.119C85.3458 215.812 88.356 218.79 92.0479 218.77C95.7408 218.75 98.7186 215.74 98.6987 212.047C98.6788 208.354 95.6687 205.377 91.9757 205.397Z" fill="#F2E8C3"/>
<path d="M69.8084 227.805C66.1154 227.825 63.1386 230.835 63.1586 234.528C63.1785 238.22 66.1876 241.198 69.8805 241.178C73.5735 241.158 76.5513 238.148 76.5314 234.455C76.5114 230.763 73.5013 227.785 69.8084 227.805Z" fill="#F2E8C3"/>
<path d="M47.4004 205.637C43.7074 205.657 40.7296 208.667 40.7496 212.36C40.7695 216.053 43.7796 219.03 47.4726 219.01C51.1655 218.99 54.1423 215.981 54.1224 212.288C54.1024 208.595 51.0933 205.618 47.4004 205.637Z" fill="#F2E8C3"/>
<path d="M25.233 228.046C21.5401 228.066 18.5623 231.075 18.5822 234.768C18.6021 238.461 21.6122 241.438 25.3052 241.418C28.9981 241.398 31.9749 238.389 31.955 234.696C31.9351 231.003 28.926 228.026 25.233 228.046Z" fill="#F2E8C3"/>
<path d="M2.82404 205.878C-0.867901 205.898 -3.84569 208.908 -3.82576 212.6C-3.80583 216.293 -0.79573 219.271 2.89622 219.251C6.58916 219.231 9.56697 216.221 9.54704 212.528C9.52711 208.836 6.51699 205.858 2.82404 205.878Z" fill="#F2E8C3"/>
<path d="M136.311 160.581C132.619 160.601 129.641 163.611 129.661 167.303C129.681 170.996 132.691 173.973 136.383 173.953C140.076 173.933 143.054 170.923 143.034 167.23C143.014 163.538 140.004 160.561 136.311 160.581Z" fill="#F2E8C3"/>
<path d="M114.144 182.989C110.451 183.008 107.473 186.018 107.493 189.711C107.513 193.404 110.523 196.381 114.216 196.361C117.909 196.342 120.886 193.332 120.866 189.639C120.846 185.946 117.836 182.969 114.144 182.989Z" fill="#F2E8C3"/>
<path d="M91.7352 160.821C88.0432 160.841 85.0654 163.851 85.0854 167.543C85.1053 171.236 88.1154 174.214 91.8074 174.194C95.5003 174.174 98.4781 171.164 98.4582 167.471C98.4382 163.779 95.4281 160.801 91.7352 160.821Z" fill="#F2E8C3"/>
<path d="M69.5678 183.229C65.8748 183.249 62.898 186.259 62.918 189.952C62.9379 193.644 65.947 196.622 69.6399 196.602C73.3329 196.582 76.3107 193.572 76.2908 189.88C76.2708 186.187 73.2607 183.209 69.5678 183.229Z" fill="#F2E8C3"/>
<path d="M47.1598 161.062C43.4669 161.082 40.4891 164.092 40.509 167.784C40.5289 171.477 43.5391 174.454 47.232 174.435C50.925 174.415 53.9017 171.404 53.8818 167.712C53.8619 164.02 50.8528 161.042 47.1598 161.062Z" fill="#F2E8C3"/>
<path d="M24.9924 183.47C21.2995 183.49 18.3217 186.5 18.3416 190.192C18.3615 193.885 21.3716 196.863 25.0646 196.843C28.7575 196.823 31.7343 193.813 31.7144 190.12C31.6945 186.427 28.6854 183.45 24.9924 183.47Z" fill="#F2E8C3"/>
<path d="M2.58344 161.302C-1.1085 161.322 -4.08629 164.332 -4.06637 168.024C-4.04644 171.717 -1.03633 174.695 2.65561 174.675C6.34856 174.655 9.32637 171.645 9.30644 167.952C9.28652 164.26 6.27639 161.282 2.58344 161.302Z" fill="#F2E8C3"/>
<path d="M113.903 138.413C110.21 138.433 107.233 141.442 107.253 145.135C107.273 148.828 110.282 151.806 113.975 151.786C117.668 151.766 120.645 148.756 120.626 145.063C120.606 141.37 117.596 138.393 113.903 138.413Z" fill="#F2E8C3"/>
<path d="M91.4946 116.245C87.8026 116.265 84.8248 119.275 84.8448 122.968C84.8647 126.661 87.8748 129.638 91.5668 129.618C95.2597 129.598 98.2375 126.589 98.2176 122.896C98.1976 119.203 95.1875 116.225 91.4946 116.245Z" fill="#F2E8C3"/>
<path d="M69.3272 138.654C65.6343 138.674 62.6575 141.683 62.6774 145.376C62.6973 149.069 65.7065 152.046 69.3994 152.027C73.0924 152.007 76.0701 148.997 76.0502 145.304C76.0303 141.611 73.0202 138.634 69.3272 138.654Z" fill="#F2E8C3"/>
<path d="M46.9192 116.485C43.2263 116.505 40.2485 119.515 40.2684 123.208C40.2883 126.901 43.2985 129.878 46.9914 129.858C50.6844 129.838 53.6612 126.829 53.6412 123.136C53.6213 119.443 50.6122 116.465 46.9192 116.485Z" fill="#F2E8C3"/>
<path d="M24.7519 138.894C21.0589 138.914 18.0811 141.923 18.1011 145.616C18.121 149.309 21.1311 152.287 24.824 152.267C28.517 152.247 31.4938 149.237 31.4739 145.544C31.4539 141.851 28.4448 138.874 24.7519 138.894Z" fill="#F2E8C3"/>
<path d="M2.3429 116.726C-1.34904 116.746 -4.32683 119.756 -4.3069 123.449C-4.28697 127.142 -1.27687 130.119 2.41508 130.099C6.10802 130.079 9.08584 127.07 9.06591 123.377C9.04598 119.684 6.03585 116.706 2.3429 116.726Z" fill="#F2E8C3"/>
<path d="M69.0866 94.0774C65.3937 94.0973 62.4169 97.1074 62.4368 100.8C62.4567 104.493 65.4659 107.47 69.1588 107.45C72.8518 107.43 75.8296 104.421 75.8096 100.728C75.7897 97.0353 72.7796 94.0575 69.0866 94.0774Z" fill="#F2E8C3"/>
<path d="M46.6787 71.91C42.9858 71.93 40.0079 74.9401 40.0279 78.632C40.0478 82.325 43.0579 85.3028 46.7509 85.2828C50.4438 85.2629 53.4206 82.2528 53.4007 78.5599C53.3808 74.8679 50.3717 71.8901 46.6787 71.91Z" fill="#F2E8C3"/>
<path d="M24.5113 94.318C20.8183 94.3379 17.8405 97.348 17.8605 101.041C17.8804 104.734 20.8905 107.711 24.5834 107.691C28.2764 107.671 31.2532 104.662 31.2333 100.969C31.2133 97.2758 28.2042 94.298 24.5113 94.318Z" fill="#F2E8C3"/>
<path d="M2.1023 72.1506C-1.58964 72.1705 -4.56743 75.1806 -4.54751 78.8726C-4.52758 82.5655 -1.51747 85.5433 2.17447 85.5234C5.86742 85.5035 8.84523 82.4934 8.8253 78.8004C8.80538 75.1085 5.79525 72.1307 2.1023 72.1506Z" fill="#F2E8C3"/>
<path d="M24.2707 49.7426C20.5778 49.7626 17.6 52.7717 17.6199 56.4646C17.6398 60.1576 20.65 63.1354 24.3429 63.1154C28.0358 63.0955 31.0127 60.0854 30.9927 56.3924C30.9728 52.6995 27.9637 49.7227 24.2707 49.7426Z" fill="#F2E8C3"/>
<path d="M1.86177 27.5752C-1.83018 27.5952 -4.80797 30.6043 -4.78804 34.2972C-4.76811 37.9902 -1.75801 40.967 1.93394 40.947C5.62688 40.9271 8.6047 37.918 8.58477 34.2251C8.56484 30.5321 5.55472 27.5553 1.86177 27.5752Z" fill="#F2E8C3"/>
</g>
<defs>
<clipPath id="clip0_3_10">
<rect width="209" height="285" fill="white" transform="translate(210.535 284.996) rotate(179.691)"/>
</clipPath>
</defs>
</svg>
